<?xml version="1.0" standalone="no"?>
<!DOCTYPE svg PUBLIC "-//W3C//DTD SVG 20010904//EN" "http://www.w3.org/TR/2001/REC-SVG-20010904/DTD/svg10.dtd">
<!-- Created using Krita: https://krita.org -->
<svg xmlns="http://www.w3.org/2000/svg" 
    xmlns:xlink="http://www.w3.org/1999/xlink"
    xmlns:krita="http://krita.org/namespaces/svg/krita"
    xmlns:sodipodi="http://sodipodi.sourceforge.net/DTD/sodipodi-0.dtd"
    width="368.64pt"
    height="368.64pt"
    viewBox="0 0 368.64 368.64">
<defs/>
<rect id="shape0" transform="matrix(0.72 0 0 0.72 0 0)" fill="#ffffff" stroke-opacity="0" stroke="#000000" stroke-width="0" stroke-linecap="square" stroke-linejoin="bevel" width="512" height="512" rx="76.8" ry="76.8"/><path id="shape1" transform="matrix(0.72 0 0 0.72 75.507429760666 60.48)" fill="none" stroke="#ffffff" stroke-width="23" stroke-linecap="butt" stroke-linejoin="miter" stroke-miterlimit="2" d="M150.129 0C121.129 0 109.129 24 109.129 24C73.1286 90 41.1286 157 8.12857 227C8.12857 227 -17.8714 278 23.1286 311C80.1286 356 133.129 289 150.129 272C167.129 255 198.129 216 198.129 172C198.129 172 197.129 128 150.129 128C103.129 128 101.129 172 101.129 172C101.129 213 133.129 255 150.129 272C167.129 290 221.129 357 279.129 311C315.129 282 292.129 227 292.129 227C261.129 159 225.129 84 192.129 24C192.129 24 182.129 0 150.129 0Z" sodipodi:nodetypes="ccccccccccccc"/><g id="Home" transform="matrix(1.81759688392034 0 0 1.81759688392034 21.8173739392455 48.9527101627165)" fill="none">
  <g id="Desktop-HD" transform="translate(-130, -64)" fill="none">
   <g id="MadLab-Logo-Copy" transform="translate(130, 64)" fill="none">
    <path id="Shape" transform="translate(141, 34)" fill="#000000" stroke-opacity="0" stroke="#000000" stroke-width="0" stroke-linecap="square" stroke-linejoin="bevel" d="M38.9021 8.74486L38.0221 12.1694C37.2331 17.7343 27.5228 23.9108 25.2772 25.3173L25.2772 25.5619C28.8936 25.6021 32.4417 26.559 35.5945 28.3444C37.8362 30.0537 39.1057 32.7605 38.9931 35.591C39.0657 38.2326 38.0943 40.7951 36.2924 42.7153C34.4414 44.397 24.9131 51.4602 22.8193 53.1113C21.4151 54.5015 19.7124 55.5477 17.8428 56.1689C15.9007 57.8506 15.9007 57.8506 14.4138 58.2787L12.1683 59.2571C10.3507 60.0876 8.43267 60.6736 6.46345 61C5.43172 58.8291 5.06759 58.2787 3.58069 58.187C0.88 57.9118 0 57.1168 0 54.5789L1.03172 45.1614L3.39862 33.3283L4.61241 25.0421L5.21931 22.3208L7.22207 11.2216L5.03724 11.405C3.03448 11.405 2.00276 10.7629 2.00276 8.83659C1.82204 6.16833 3.38306 3.69128 5.85655 2.7213C10.0745 0.519799 18.4497 0 23.6083 0C30.5269 0 34.3807 1.07018 36.7172 3.60802C37.9381 5.06214 38.699 6.8512 38.9021 8.74486ZM28.7669 35.3464L12.5021 34.3985C12.0272 39.0787 11.0087 43.6865 9.46758 48.1273C14.08 47.9439 24.2152 42.0426 28.7669 35.3464ZM28.4331 9.35639L19.9365 9.35639L17.2965 9.53985L15.2938 21.006C20.2091 17.7829 24.6349 13.8589 28.4331 9.35639Z" sodipodi:nodetypes="cccccccccccccccccccccccccccccccccc"/>
    <path id="Shape1" transform="translate(94, 60)" fill="#000000" stroke-opacity="0" stroke="#000000" stroke-width="0" stroke-linecap="square" stroke-linejoin="bevel" d="M43 9.20042L43 13.2758C43 17.9069 40.5957 38.9011 40.5957 42.4516L40.7806 46.9901L40.4108 52.3312C40.4108 56.4992 39.3627 56.9623 37.3283 56.9623C36.2602 56.9603 35.2058 57.2032 34.2459 57.6724C33.9361 58.2299 33.477 58.6897 32.9204 59L32.0265 57.2093C31.0401 54.6468 30.9477 54.3689 29.9921 53.381C29.0366 52.393 29.0057 51.9608 29.0057 48.5955L29.1907 46.8048C29.3199 45.501 29.3199 44.1876 29.1907 42.8838L28.3892 42.5442L26.6323 42.9765C24.5226 43.314 22.3878 43.469 20.2516 43.4396C17.4774 43.4396 16.491 43.4396 15.7821 44.4893C14.4496 46.145 13.2926 47.9351 12.3297 49.8305C11.1584 52.2386 10.1104 54.2763 9.24731 54.2763C7.49285 54.0267 5.74566 54.7767 4.71613 56.2214C4.28459 56.9623 4.00717 57.3946 3.39068 57.3946C1.71846 57.1956 0.356615 55.9556 0 54.3072L0.801434 50.0466C2.36359 44.8162 4.83678 39.9036 8.10681 35.5358L17.6932 21.7661L20.9606 16.2088L25.0602 10.775C30.1154 2.68603 31.7183 0 33.9376 0C35.6337 0.376028 37.2717 0.978297 38.8079 1.79069C41.3047 2.87127 43 3.58137 43 9.20042ZM30.8244 28.404L32.9513 15.3134L31.9032 15.4987C30.1345 17.8383 28.6448 20.3768 27.4645 23.0628L25.6767 26.3354L21.8545 32.8498L22.6559 33.4673L25.4918 32.9424L28.3276 32.6646L30.2079 32.6646Z" sodipodi:nodetypes="ccccccccccccccccccccccccccccccccccccccccc"/>
    <path id="Shape2" transform="translate(91.9999997490182, -4.99902341744018e-10)" fill="#000000" stroke-opacity="0" stroke="#000000" stroke-width="0" stroke-linecap="square" stroke-linejoin="bevel" d="M36.9569 8.7372C37.1545 13.6902 36.6723 18.6469 35.5238 23.4704C32.109 32.8076 31.987 33.3836 23.6022 46.0857C22.8095 47.3589 20.5532 50.6027 20.1568 51.118L15.9187 55.059C14.5439 56.5596 12.9509 57.8471 11.1927 58.8787C10.7495 58.8357 10.3108 58.7545 9.88167 58.6362C9.45015 58.5283 9.01228 58.4473 8.57059 58.3937C7.02104 58.7012 5.45227 58.9038 3.87511 59C2.59453 59 2.10669 58.6362 1.86277 57.6661C1.61885 56.696 1.86277 53.3614 1.67983 52.4822C1.49689 50.3601 1.89326 39.9013 1.89326 37.5671L1.22248 21.4999L0.368752 12.7691C-0.484971 5.5844 0.0943416 3.0076 2.62502 2.24972C3.38601 2.1881 4.15079 2.1881 4.91178 2.24972L5.79599 2.24972C6.92269 2.32983 8.0537 2.32983 9.18039 2.24972C11.4288 1.65766 13.709 1.19209 16.0102 0.855212C18.4723 0.367397 20.9709 0.0834807 23.4803 0.00638288C26.061 -0.0711007 28.6135 0.558121 30.8589 1.8253C33.5715 3.43493 35.7052 5.85337 36.9569 8.7372ZM11.9245 45.1156C25.4316 26.9264 28.0233 15.1944 26.8037 7.67616C25.8948 7.54795 24.9775 7.48715 24.0596 7.49427C21.266 7.51524 18.4838 7.85085 15.7663 8.49467L9.24137 10.1923L10.9183 21.2877L11.6501 31.1099Z" sodipodi:nodetypes="cccccccccccccccccccccccccccccc"/>
    <path id="Path" transform="translate(64, 77)" fill="#000000" fill-rule="evenodd" stroke-opacity="0" stroke="#000000" stroke-width="0" stroke-linecap="square" stroke-linejoin="bevel" d="M30.9691 48.6924C30.8049 49.5991 30.4007 50.4458 29.7982 51.1454C29.0495 51.8632 28.6079 52.8407 28.5656 53.8744C28.5656 55.9901 28.0417 56.9407 27.333 57.3086C26.3945 57.5517 25.5145 57.9792 24.7445 58.5658L21.663 59.9763C20.4151 60.6304 18.992 60.8771 17.5954 60.6815C15.8081 60.6815 6.93339 62 4.99204 62C4.0984 62 3.91351 62 3.66699 61.1414C3.12943 59.9398 2.4011 58.832 1.50994 57.8605C0.369781 56.3581 0 55.6528 0 54.7943C0.410825 53.2827 0.915098 51.7978 1.50994 50.3482L3.29721 44.2156L6.37872 30.9693L7.17991 28.2097L12.1411 6.13254C12.8499 2.88229 15.2226 0 17.4721 0C18.6123 0 20.9234 1.04253 20.5536 2.91296L18.6123 28.6083L15.9006 41.8546L14.8529 45.9327L13.4046 50.1642L13.4046 50.6855C14.7221 50.543 16.0292 50.3177 17.3181 50.0109C18.0268 49.8269 21.5705 49.8269 22.2793 49.5509C24.4838 48.3394 26.8344 47.4121 29.2743 46.7913C29.7743 46.7529 30.2635 46.9496 30.5963 47.3229C30.9291 47.6962 31.0671 48.203 30.9691 48.6924Z" sodipodi:nodetypes="cccccccccccccccccccccccccccc"/>
    <path id="Shape3" transform="translate(51.9999997831005, 13)" fill="#000000" stroke-opacity="0" stroke="#000000" stroke-width="0" stroke-linecap="square" stroke-linejoin="bevel" d="M35.6619 42.319C37.798 45.8507 37.1361 46.8027 35.3611 47.9083C34.609 48.3689 33.2251 49.6281 33.1348 50.1194C33.1505 50.764 32.9945 51.4008 32.6835 51.962L31.0589 50.8872C28.9229 49.2288 28.7123 49.0446 27.4187 48.7067C26.125 48.3689 25.8542 48.0004 24.1695 45.1443L23.3873 43.5474C22.9008 42.3357 22.2854 41.1823 21.5521 40.1078L20.7097 40.1078L19.4461 41.3977C17.85 42.7712 16.1499 44.0137 14.3618 45.1136C12.0753 46.5263 11.3533 47.0177 11.2029 48.1847C10.9087 50.2797 10.8482 52.402 11.0224 54.511C11.263 57.1521 11.4435 59.4247 10.6312 59.9468C8.40496 61.3287 7.89351 62.5571 7.83335 63.9698C7.83335 64.799 7.83335 65.3211 7.29182 65.6282C6.78507 65.8764 6.22926 66.0025 5.66723 65.9967C4.63885 66.0422 3.64484 65.6138 2.95958 64.8297L1.45533 60.7759C0.137598 55.6084 -0.289958 50.2464 0.191762 44.9294L1.18457 28.2536L1.18457 21.6509L1.84644 14.956C1.84644 5.43575 1.84644 2.3647 3.77187 1.19771C5.37319 0.624012 7.04284 0.272811 8.73589 0.153552C9.36768 0.153552 9.93929 0 10.5109 0C12.2258 0 13.7601 0.73705 15.8961 4.33017L17.8817 7.83116C20.2284 11.7621 28.8928 30.8333 30.6979 33.8429L33.2852 37.5896ZM17.3402 30.8333L15.5953 26.933L10.7215 14.6489L9.93929 15.3552C9.67721 18.2594 9.72765 21.1841 10.0897 24.077L10.2702 27.7929L10.2702 35.2556L11.2329 35.2556L13.3389 33.3515L15.5652 31.6317Z" sodipodi:nodetypes="ccccccccccccccccccccccccccccccccccccccccccc"/>
    <path id="Path1" transform="translate(-6.87327776915936e-08, 56)" fill="#000000" fill-rule="evenodd" stroke-opacity="0" stroke="#000000" stroke-width="0" stroke-linecap="square" stroke-linejoin="bevel" d="M50.8629 30.7171C55.5492 48.1909 55.5492 48.7427 54.2794 56.9891L54.2794 57.7249C54.2794 58.8591 54.2794 58.9511 53.6445 59.2883C52.6624 58.7215 51.7404 58.0538 50.8931 57.2957C50.3375 56.7367 49.5896 56.418 48.807 56.4067C48.1938 56.4364 47.5948 56.6039 47.0534 56.8972L46.358 56.2534C45.7747 54.3938 45.4193 52.4684 45.2998 50.5208C45.0579 48.7734 43.1531 40.5883 42.7601 38.7183C42.2266 34.4959 41.1175 30.369 39.4645 26.456C38.9203 27.1917 38.9808 27.7435 39.0412 30.9624C39.0412 33.4455 37.3179 45.5545 37.2876 48.3442L36.2899 59.3803C36.7132 61.1277 36.7434 61.2196 36.4411 61.9554C36.1387 62.6911 36.0178 63.151 36.4411 64.3159L36.4411 65.5728C36.2808 65.5976 36.1176 65.5976 35.9573 65.5728C35.6996 65.5724 35.4514 65.474 35.2619 65.2969L32.9339 64.6531C31.8842 64.0872 30.7924 63.6055 29.6686 63.2123C29.3467 63.2409 29.0229 63.2409 28.7011 63.2123C27.2196 63.2123 26.7358 62.5378 24.5892 59.5336L22.6844 56.9278C18.6389 50.9566 14.9536 44.7426 11.6488 38.3198L11.3163 38.0438L11.1651 38.3504C11.1651 38.3504 12.1326 44.3283 12.0721 45.4319C11.9798 46.8901 12.0815 48.3543 12.3745 49.785L13.4629 56.7745L14.2792 60.7905C15.2622 64.2988 15.7308 67.9347 15.67 71.5813L16.2445 77.3752C15.866 77.2374 15.4674 77.1649 15.0653 77.1607C14.7631 77.1805 14.4664 77.2531 14.1885 77.3752L12.6466 79L12.314 79C11.921 79 11.6488 78.3869 10.6511 76.2716L8.38353 73.6352C7.58958 70.68 6.9637 67.6811 6.50899 64.6531L3.66696 49.969L0.643517 27.3143L0.129531 25.2297C-0.112344 24.4633 -0.172813 19.0986 1.39938 18.2402L4.42282 17.6271L5.75313 16.5235L6.05548 16.5235C7.71719 16.6856 9.33591 17.1531 10.8325 17.903C12.2233 18.6081 20.3866 28.8778 27.6731 44.3283L27.9754 44.3283L29.0336 31.3915L31.6036 8.92084L32.2083 4.81296C32.4199 2.66705 33.0548 2.3605 34.8689 1.47148L36.9853 0C37.4757 0.136163 37.9517 0.320991 38.4063 0.551804C41.0972 1.3182 41.2483 1.65541 41.974 3.21886L43.395 4.81296L43.6973 6.03919L47.0231 16.4315Z" sodipodi:nodetypes="ccccccccccccccccccccccccccccccccccccccccccccccccccccccccccccc"/>
   </g>
  </g>
 </g>
</svg>
