<?xml version="1.0" standalone="no"?>
<!DOCTYPE svg PUBLIC "-//W3C//DTD SVG 20010904//EN" "http://www.w3.org/TR/2001/REC-SVG-20010904/DTD/svg10.dtd">
<!-- Created using Krita: https://krita.org -->
<svg xmlns="http://www.w3.org/2000/svg" 
    xmlns:xlink="http://www.w3.org/1999/xlink"
    xmlns:krita="http://krita.org/namespaces/svg/krita"
    xmlns:sodipodi="http://sodipodi.sourceforge.net/DTD/sodipodi-0.dtd"
    width="512pt"
    height="512pt"
    viewBox="0 0 512 512">
<defs/>
<path id="shape0" transform="matrix(19.0872970030881 0 0 19.0872970030881 59.2447460863606 0.0495758124978563)" fill="#ff5d01" fill-rule="evenodd" stroke-opacity="0" stroke="#000000" stroke-width="0" stroke-linecap="square" stroke-linejoin="bevel" d="M0.572 16.2444C0.225162 17.0776 0.0313887 17.9665 0 18.8684C0.0478602 19.4246 0.237593 19.9594 0.551 20.4214C1.14076 21.1042 1.85003 21.6739 2.644 22.1024L7.772 25.5164C8.403 26.0186 9.11254 26.4132 9.872 26.6844C10.3651 26.8018 10.8789 26.8018 11.372 26.6844C12.1365 26.4165 12.8518 26.0246 13.489 25.5244L18.672 22.1084C19.4741 21.6786 20.1914 21.1066 20.789 20.4204C21.1046 19.9559 21.2942 19.4172 21.339 18.8574C21.305 17.9481 21.1061 17.0526 20.752 16.2144L16.219 1.9484C16.1178 1.48639 15.9349 1.04613 15.679 0.648403C15.4926 0.421913 15.2517 0.246411 14.979 0.138403C14.5233 0.0148516 14.0492 -0.0264628 13.579 0.0164033L7.677 0.0164033C7.20662 -0.026354 6.73236 0.0159904 6.277 0.141403C6.00363 0.249193 5.76254 0.425533 5.577 0.653403C5.32218 1.05115 5.14096 1.49151 5.042 1.9534L0.572 16.2454ZM13.812 3.0444C14.0228 3.3796 14.1722 3.74975 14.253 4.1374L18.145 16.9214C16.6832 16.1632 15.114 15.6327 13.492 15.3484L10.963 6.7884C10.9422 6.72075 10.9002 6.66152 10.8433 6.61946C10.7864 6.5774 10.7174 6.55469 10.6467 6.55468C10.5759 6.55467 10.5069 6.57736 10.45 6.6194C10.3929 6.66117 10.3511 6.72057 10.331 6.7884L7.831 15.3454C6.2013 15.6291 4.62486 16.1617 3.157 16.9244L7.065 4.1404C7.14501 3.75203 7.29477 3.38136 7.507 3.0464C7.66177 2.85645 7.86196 2.70855 8.089 2.6164C8.47152 2.51301 8.86951 2.47914 9.264 2.5164L12.057 2.5164C12.4518 2.4791 12.8501 2.51297 13.233 2.6164C13.4607 2.70881 13.6613 2.85746 13.816 3.0484ZM10.799 18.4574C12.0023 18.5271 13.1961 18.203 14.199 17.5344C14.313 17.8933 14.3534 18.2716 14.3179 18.6465C14.2823 19.0214 14.1715 19.3853 13.992 19.7164C13.6231 20.3434 13.0875 20.8562 12.445 21.1974C11.771 21.6254 11.191 21.9974 11.191 22.9844C11.1902 23.301 11.2617 23.6136 11.4 23.8984C10.9455 23.7097 10.5571 23.3904 10.2839 22.9811C10.0107 22.5718 9.86492 22.0905 9.865 21.5984L9.865 21.5374C9.865 20.8544 9.865 20.0134 8.903 20.0134C8.76889 20.0133 8.63606 20.0395 8.512 20.0904C8.26243 20.1937 8.0638 20.392 7.96 20.6414C7.90844 20.7653 7.8816 20.8982 7.881 21.0324C7.22186 20.3126 6.86744 19.3641 6.893 18.3884C6.88833 17.966 6.94732 17.5453 7.068 17.1404C7.468 17.8974 8.988 18.4604 10.799 18.4604Z" sodipodi:nodetypes="ccccccccccccccccccccccccccccccccccccccccccccccccccccccccccc"/>
</svg>
