<?xml version="1.0" standalone="no"?>
<!DOCTYPE svg PUBLIC "-//W3C//DTD SVG 20010904//EN" "http://www.w3.org/TR/2001/REC-SVG-20010904/DTD/svg10.dtd">
<!-- Created using Krita: https://krita.org -->
<svg xmlns="http://www.w3.org/2000/svg" 
    xmlns:xlink="http://www.w3.org/1999/xlink"
    xmlns:krita="http://krita.org/namespaces/svg/krita"
    xmlns:sodipodi="http://sodipodi.sourceforge.net/DTD/sodipodi-0.dtd"
    width="512pt"
    height="512pt"
    viewBox="0 0 512 512">
<defs/>
<path id="shape0" transform="translate(30.272001586914, 0)" fill="#264de4" stroke-opacity="0" stroke="#000000" stroke-width="0" stroke-linecap="square" stroke-linejoin="bevel" d="M41.085 460.819L0 0L451.456 0L410.327 460.746L225.452 512Z" sodipodi:nodetypes="cccccc"/><path id="shape1" transform="translate(256.000001586914, 37.678)" fill="#2965f1" stroke-opacity="0" stroke="#000000" stroke-width="0" stroke-linecap="square" stroke-linejoin="bevel" d="M149.388 393.73L184.536 0L0 0L0 435.146Z" sodipodi:nodetypes="ccccc"/><path id="shape2" transform="translate(114.281001586914, 94.197)" fill="#ebebeb" stroke-opacity="0" stroke="#000000" stroke-width="0" stroke-linecap="square" stroke-linejoin="bevel" d="M10.179 114.393L15.244 170.91L141.719 170.91L141.719 114.393ZM5.138 56.518L141.719 56.518L141.719 0L0 0ZM141.719 261.175L141.471 261.241L78.527 244.245L74.504 199.169L17.768 199.169L25.687 287.91L141.459 320.05L141.719 319.977Z" sodipodi:nodetypes="ccccccccccccccccccc"/><path id="shape3" transform="translate(255.805001586914, 94.1970000000001)" fill="#ffffff" stroke-opacity="0" stroke="#000000" stroke-width="0" stroke-linecap="square" stroke-linejoin="bevel" d="M2.84217e-14 114.393L2.84217e-14 170.91L69.595 170.91L63.035 244.209L0 261.222L0 320.022L115.864 287.91L116.714 278.361L129.994 129.569L131.374 114.393L141.577 0L2.84217e-14 0L2.84217e-14 56.518L79.639 56.518L74.495 114.393Z" sodipodi:nodetypes="cccccccccccccccc"/>
</svg>
