<?xml version="1.0" standalone="no"?>
<!DOCTYPE svg PUBLIC "-//W3C//DTD SVG 20010904//EN" "http://www.w3.org/TR/2001/REC-SVG-20010904/DTD/svg10.dtd">
<!-- Created using Krita: https://krita.org -->
<svg xmlns="http://www.w3.org/2000/svg" 
    xmlns:xlink="http://www.w3.org/1999/xlink"
    xmlns:krita="http://krita.org/namespaces/svg/krita"
    xmlns:sodipodi="http://sodipodi.sourceforge.net/DTD/sodipodi-0.dtd"
    width="512pt"
    height="512pt"
    viewBox="0 0 512 512">
<defs/>
<path id="shape0" transform="matrix(3.125 0 0 3.125 -6.59194920871187e-15 0.000781249999999914)" fill="#de4c36" stroke-opacity="0" stroke="#000000" stroke-width="0" stroke-linecap="square" stroke-linejoin="bevel" d="M160.753 74.6213L89.2175 3.08981C85.1003 -1.02994 78.4186 -1.02994 74.2963 3.08981L59.4417 17.9445L78.2855 36.7883C82.6644 35.3086 87.686 36.3013 91.1766 39.7919C94.6839 43.3049 95.6695 48.3693 94.1539 52.7623L112.314 70.9233C116.708 69.4097 121.777 70.3889 125.287 73.9038C130.191 78.8063 130.191 86.752 125.287 91.6577C120.381 96.564 112.435 96.564 107.527 91.6577C103.838 87.9649 102.927 82.5472 104.794 78.0025L87.8581 61.0665L87.8562 105.635C89.0839 106.242 90.2053 107.044 91.1766 108.009C96.081 112.912 96.081 120.858 91.1766 125.768C86.2709 130.672 78.3213 130.672 73.4227 125.768C68.5183 120.858 68.5183 112.912 73.4227 108.01C74.598 106.834 75.9948 105.903 77.5322 105.27L77.5322 60.2863C75.9926 59.6578 74.5949 58.726 73.4227 57.5464C69.7068 53.8356 68.8133 48.3834 70.7174 43.8207L52.1417 25.2432L3.09125 74.2904C-1.03042 78.414 -1.03042 85.0963 3.09125 89.2167L74.6278 160.749C78.7463 164.87 85.4267 164.87 89.5503 160.749L160.752 89.5489C164.873 85.4272 164.873 78.741 160.752 74.6213" sodipodi:nodetypes="ccccccccccccccccccccccccccccc"/>
</svg>
