<?xml version="1.0" standalone="no"?>
<!DOCTYPE svg PUBLIC "-//W3C//DTD SVG 20010904//EN" "http://www.w3.org/TR/2001/REC-SVG-20010904/DTD/svg10.dtd">
<!-- Created using Krita: https://krita.org -->
<svg xmlns="http://www.w3.org/2000/svg" 
    xmlns:xlink="http://www.w3.org/1999/xlink"
    xmlns:krita="http://krita.org/namespaces/svg/krita"
    xmlns:sodipodi="http://sodipodi.sourceforge.net/DTD/sodipodi-0.dtd"
    width="512pt"
    height="512pt"
    viewBox="0 0 512 512">
<defs/>
<rect id="shape0" transform="matrix(0.812698412698413 0 0 0.812698412698413 -1.08357767203415e-13 -1.03028696685215e-13)" fill="#f7df1e" stroke-opacity="0" stroke="#000000" stroke-width="0" stroke-linecap="square" stroke-linejoin="bevel" width="630" height="630"/><path id="shape1" transform="matrix(0.812698412698413 0 0 0.812698412698413 134.810412698413 232.342349206349)" fill="#000000" stroke-opacity="0" stroke="#000000" stroke-width="0" stroke-linecap="square" stroke-linejoin="bevel" d="M257.32 206.3C270.01 227.02 286.52 242.25 315.72 242.25C340.25 242.25 355.92 229.99 355.92 213.05C355.92 192.75 339.82 185.56 312.82 173.75L298.02 167.4C255.3 149.2 226.92 126.4 226.92 78.2C226.92 33.8 260.75 0 313.62 0C351.26 0 378.32 13.1 397.82 47.4L351.72 77C341.57 58.8 330.62 51.63 313.62 51.63C296.28 51.63 285.29 62.63 285.29 77C285.29 94.76 296.29 101.95 321.69 112.95L336.49 119.29C386.79 140.86 415.19 162.85 415.19 212.29C415.19 265.59 373.32 294.79 317.09 294.79C262.11 294.79 226.59 268.59 209.21 234.25ZM48.19 211.43C57.49 227.93 65.95 241.88 86.29 241.88C105.74 241.88 118.01 234.27 118.01 204.68L118.01 3.38L177.21 3.38L177.21 205.48C177.21 266.78 141.27 294.68 88.81 294.68C41.41 294.68 13.96 270.15 0 240.605Z" sodipodi:nodetypes="cccccccccccccccccccccccccc"/>
</svg>
