<?xml version="1.0" standalone="no"?>
<!DOCTYPE svg PUBLIC "-//W3C//DTD SVG 20010904//EN" "http://www.w3.org/TR/2001/REC-SVG-20010904/DTD/svg10.dtd">
<!-- Created using Krita: https://krita.org -->
<svg xmlns="http://www.w3.org/2000/svg" 
    xmlns:xlink="http://www.w3.org/1999/xlink"
    xmlns:krita="http://krita.org/namespaces/svg/krita"
    xmlns:sodipodi="http://sodipodi.sourceforge.net/DTD/sodipodi-0.dtd"
    width="512pt"
    height="512pt"
    viewBox="0 0 512 512">
<defs/>
<g id="group0" transform="matrix(0.54065468846556 0 0 0.54065468846556 -5.68434177480188e-14 -5.68434177480188e-14)" fill="none">
  <path id="shape0" transform="translate(111.5, 111.6)" fill="#000080" stroke-opacity="0" stroke="#000000" stroke-width="0" stroke-linecap="square" stroke-linejoin="bevel" d="M724 362C724 162.2 561.8 0 362 0C162.2 0 0 162.2 0 362C0 561.8 162.2 724 362 724C561.8 724 724 561.8 724 362" sodipodi:nodetypes="ccccc"/>
  <path id="shape1" transform="translate(517.5, 217.6)" fill="#ffffff" stroke-opacity="0" stroke="#000000" stroke-width="0" stroke-linecap="square" stroke-linejoin="bevel" d="M212 106C212 47.5 164.5 0 106 0C47.5 0 0 47.5 0 106C0 164.5 47.5 212 106 212C164.5 212 212 164.5 212 106" sodipodi:nodetypes="ccccc"/>
  <path id="shape2" transform="translate(729.5, 5.5)" fill="#000080" stroke-opacity="0" stroke="#000000" stroke-width="0" stroke-linecap="square" stroke-linejoin="bevel" d="M212 106C212 47.5 164.5 0 106 0C47.5 0 0 47.5 0 106C0 164.5 47.5 212 106 212C164.5 212 212 164.6 212 106" sodipodi:nodetypes="ccccc"/>
  <g id="group1" fill="none">
   <path id="shape3" transform="translate(227.8, 417)" fill="#ffffff" stroke-opacity="0" stroke="#000000" stroke-width="0" stroke-linecap="square" stroke-linejoin="bevel" d="M30.3 210.8L147.6 210.8L147.6 237.5L0 237.5L0 0L30.3 0Z" sodipodi:nodetypes="ccccccc"/>
   <path id="shape4" transform="translate(404.1, 483.8)" fill="#ffffff" stroke-opacity="0" stroke="#000000" stroke-width="0" stroke-linecap="square" stroke-linejoin="bevel" d="M111.4 170.7L111.4 146.9C95.4 169.4 79.5 178.2 54.4 178.2C21.2 178.2 0 160 0 131.6L0 0L27 0L27 120.9C27 141.4 40.7 154.5 62.2 154.5C90.5 154.5 108.8 131.7 108.8 96.8L108.8 0L135.8 0L135.8 170.7Z" sodipodi:nodetypes="ccccccccccccc"/>
   <path id="shape5" transform="translate(577.8, 478.9)" fill="#ffffff" stroke-opacity="0" stroke="#000000" stroke-width="0" stroke-linecap="square" stroke-linejoin="bevel" d="M160.6 180.2C151.8 182.5 147.6 183.1 142 183.1C124.4 183.1 115.9 175.3 114 158C94.8 175.6 77.5 183.1 56 183.1C21.5 183.1 0 163.6 0 132.6C0 110.4 10.1 95.1 30 87C40.4 82.8 46.3 81.5 84.7 76.6C106.2 74 113 69.1 113 57.7L113 50.5C113 34.2 99.3 25.1 74.9 25.1C49.5 25.1 37.1 34.5 34.8 55.4L7.4 55.4C8.1 38.5 11.3 28.7 19.1 19.9C30.5 7.2 51 0 75.8 0C117.8 0 140 16.3 140 46.6L140 147C140 155.5 145.2 160.4 154.7 160.4C156.3 160.4 157.6 160.4 160.6 159.7ZM113 91.2C103.9 95.4 98 96.7 69.3 100.6C40.3 104.8 28.2 114 28.2 131.9C28.2 149.2 40.6 159.3 61.8 159.3C77.8 159.3 91.1 154.1 102.2 144C110.3 136.5 113 131 113 121.8Z" sodipodi:nodetypes="cccccccccccccccccccccccccc"/>
  </g>
  <path id="shape6" transform="translate(5.4, 5.4)" fill="none" stroke="#808080" stroke-width="10.8612" stroke-linecap="butt" stroke-linejoin="miter" stroke-miterlimit="10" stroke-dasharray="40.8475,40.8475" d="M885.2 255.6C918.7 321.4 936.2 394.2 936.2 468.1C936.2 726.5 726.5 936.2 468.1 936.2C209.7 936.2 0 726.5 0 468.1C0 209.7 209.7 0 468.1 0C551.2 0 632.7 22.1 704.3 63.9" sodipodi:nodetypes="cccccc"/>
 </g>
</svg>
