<?xml version="1.0" standalone="no"?>
<!DOCTYPE svg PUBLIC "-//W3C//DTD SVG 20010904//EN" "http://www.w3.org/TR/2001/REC-SVG-20010904/DTD/svg10.dtd">
<!-- Created using Krita: https://krita.org -->
<svg xmlns="http://www.w3.org/2000/svg" 
    xmlns:xlink="http://www.w3.org/1999/xlink"
    xmlns:krita="http://krita.org/namespaces/svg/krita"
    xmlns:sodipodi="http://sodipodi.sourceforge.net/DTD/sodipodi-0.dtd"
    width="512pt"
    height="512pt"
    viewBox="0 0 512 512">
<defs/>
<path id="shape0" transform="matrix(1.27999997712516 0 0 1.27999997712516 1.37249056706423e-05 -4.57496863050437e-06)" fill="#007acc" stroke-opacity="0" stroke="#000000" stroke-width="0" stroke-linecap="square" stroke-linejoin="bevel" d="M0 200L0 0L400 0L400 400L0 400" sodipodi:nodetypes="ccccc"/><path id="shape1" transform="matrix(1.27999997712516 0 0 1.27999997712516 112.256011718782 232.993902817803)" fill="#ffffff" stroke-opacity="0" stroke="#000000" stroke-width="0" stroke-linecap="square" stroke-linejoin="bevel" d="M0 18.6735L0 34.9735L52 34.9735L52 182.974L88.9 182.974L88.9 34.9735L140.9 34.9735L140.9 18.9735C140.9 9.97351 140.9 2.67351 140.5 2.47351C140.5 2.17351 108.8 2.07351 70.3 2.07351L0.3 2.37351L0.3 18.7735ZM233.7 1.97351C243.9 4.37351 251.7 8.97351 258.7 16.2735C262.4 20.2735 267.9 27.2735 268.3 29.0735C268.3 29.6735 251 41.3735 240.5 47.8735C240.1 48.1735 238.5 46.4735 236.9 43.8735C231.7 36.4735 226.4 33.2735 218.1 32.6735C206.1 31.8735 198.1 38.1735 198.1 48.6735C198.1 51.8735 198.7 53.6735 199.9 56.2735C202.6 61.7735 207.6 65.0735 223.1 71.8735C251.7 84.1735 264.1 92.2735 271.6 103.874C280.1 116.874 282 137.274 276.3 152.574C269.9 169.274 254.3 180.574 232 184.274C225 185.474 209 185.274 201.5 183.974C185.5 180.974 170.2 172.974 160.8 162.674C157.1 158.674 150 147.974 150.4 147.274L154.2 144.874L169.2 136.174L180.5 129.574L183.1 133.074C186.4 138.274 193.8 145.274 198.1 147.674C211.1 154.374 228.5 153.474 237.1 145.674C240.8 142.274 242.4 138.674 242.4 133.674C242.4 129.074 241.7 126.974 239.4 123.474C236.2 119.074 229.8 115.474 211.8 107.474C191.1 98.6735 182.3 93.0735 174.1 84.4735C169.4 79.2735 165.1 71.1735 163.1 64.4735C161.6 58.6735 161.1 44.4735 162.5 38.7735C166.8 18.7735 181.9 4.77351 203.5 0.773506C210.5 -0.626494 227 -0.0264934 233.9 1.77351Z" sodipodi:nodetypes="ccccccccccccccccccccccccccccccccccccccccccc"/>
</svg>
