<svg version="1.1" id="Layer_1" xmlns="http://www.w3.org/2000/svg" xmlns:xlink="http://www.w3.org/1999/xlink" x="0px" y="0px"
	 width="100%" viewBox="0 0 64 64" enable-background="new 0 0 64 64" xml:space="preserve">
<path fill="#EAE5DC" opacity="1.000000" stroke="none" 
	d="
M8.000001,65.000000 
	C5.676339,65.000000 3.352677,65.000000 1.029016,65.000000 
	C1.019344,64.843697 1.001209,64.687393 1.001199,64.531090 
	C0.999936,43.452160 1.000000,22.373230 1.000000,1.000000 
	C12.352534,1.000000 23.707609,1.000000 35.327171,1.303338 
	C30.579615,3.107198 24.968046,3.948078 24.916203,11.455392 
	C23.878023,14.519140 23.040476,17.254402 22.109669,20.224922 
	C21.987333,20.626368 21.958258,20.792555 21.730566,21.165079 
	C21.504393,21.495632 21.432247,21.630369 21.458555,21.741879 
	C21.513378,21.974253 21.620274,22.194340 21.625645,22.744490 
	C21.560625,24.182377 21.575731,25.295246 21.438894,26.647789 
	C21.398258,27.229689 21.509565,27.571917 21.505417,28.182209 
	C21.330753,28.635630 21.271545,28.820986 20.926689,29.034550 
	C20.093878,29.705587 19.546713,30.348417 19.020775,31.325706 
	C19.460583,32.127277 19.879166,32.594383 20.210184,33.467274 
	C19.837313,35.224945 19.552006,36.576839 19.119251,38.148994 
	C18.834044,38.888783 18.696281,39.408306 18.223160,39.987106 
	C16.980947,40.965408 16.194391,42.491554 15.146576,42.699169 
	C10.419734,43.635750 8.902966,47.258598 7.434459,51.153851 
	C7.400991,51.240376 7.379077,51.424618 7.106595,51.606544 
	C4.591392,54.082054 2.890610,56.552830 4.117375,60.348206 
	C5.388645,62.136219 6.694323,63.568108 8.000001,65.000000 
M15.515266,37.434017 
	C15.515266,37.434017 15.562769,37.520657 15.515266,37.434017 
z"/>
<path fill="#EAE5DC" opacity="1.000000" stroke="none" 
	d="
M37.000000,1.000000 
	C46.333332,1.000000 55.666668,1.000000 65.000000,1.000000 
	C65.000000,21.333334 64.948540,41.666965 65.066063,61.999619 
	C65.080521,64.501221 64.498802,65.498802 61.492958,64.591583 
	C60.319530,61.721821 59.653149,59.260468 58.987587,56.420444 
	C58.670433,54.065193 58.352459,52.088615 58.009205,49.857468 
	C57.976513,49.432518 57.969097,49.262131 57.971962,48.675102 
	C58.803680,42.607109 54.533051,39.449718 51.682068,35.388435 
	C51.549633,34.931438 51.653164,34.720661 51.801773,34.230690 
	C51.352283,33.521805 51.013893,33.168816 50.747765,32.484932 
	C50.224819,31.062901 49.629612,29.971764 48.934856,28.594635 
	C48.228741,27.537117 47.622177,26.765594 47.014236,25.576210 
	C46.943806,23.765795 46.874752,22.373240 46.839355,20.584320 
	C46.285816,17.777739 45.698620,15.367523 45.059845,12.560350 
	C44.238007,10.314022 45.787827,7.110876 42.005020,6.648693 
	C40.335854,4.519180 38.667927,2.759590 37.000000,1.000000 
z"/>
<path fill="#A1868F" opacity="1.000000" stroke="none" 
	d="
M36.750000,1.000000 
	C38.667927,2.759590 40.335854,4.519180 41.880444,6.974731 
	C40.166256,8.432275 38.575409,9.193856 36.809742,9.723763 
	C36.090385,9.327091 35.545845,9.162093 34.652481,8.986684 
	C33.695141,9.316765 33.086620,9.657257 32.478100,9.997749 
	C33.318413,10.308448 34.158722,10.619144 35.000710,11.277325 
	C35.005753,12.088081 35.009121,12.551357 34.597549,13.088263 
	C33.077164,13.383740 31.971720,13.605588 30.839413,13.479424 
	C30.780418,12.900945 30.748287,12.670476 30.821632,12.097438 
	C30.973656,11.520486 31.020201,11.286102 30.958069,10.761823 
	C30.197798,10.641807 29.546206,10.811687 28.593433,10.991714 
	C27.860569,11.339613 27.428886,11.677363 26.734951,11.961522 
	C26.020742,11.647588 25.568789,11.387246 25.116835,11.126904 
	C24.968046,3.948078 30.579615,3.107198 35.795830,1.303338 
	C36.000000,1.000000 36.500000,1.000000 36.750000,1.000000 
z"/>
<path fill="#8687A0" opacity="1.000000" stroke="none" 
	d="
M51.000000,65.000000 
	C50.555664,65.000000 50.111328,65.000000 49.337547,64.582123 
	C48.672276,61.442722 48.336445,58.721210 48.300430,55.951412 
	C49.227322,54.973862 49.854389,54.044594 50.777546,52.676540 
	C51.723789,54.701767 52.493114,56.348339 52.940872,57.306664 
	C54.279415,55.462257 55.538399,53.727482 56.858242,52.360558 
	C57.308483,54.142933 57.697861,55.557461 57.823925,57.184456 
	C57.373383,58.264946 57.186157,59.132965 56.999466,60.000496 
	C57.000000,60.000000 57.000984,59.998932 56.653488,60.046223 
	C54.537327,61.729008 52.768665,63.364506 51.000000,65.000000 
z"/>
<path fill="#F2E1E9" opacity="1.000000" stroke="none" 
	d="
M15.000000,65.000000 
	C13.285625,65.000000 11.571250,65.000000 9.550756,64.659378 
	C11.272491,62.265385 6.997523,58.502724 11.402806,57.040657 
	C11.588069,57.037464 11.960011,57.028606 12.303914,57.049843 
	C13.103977,57.042244 13.560137,57.013409 14.324650,57.083359 
	C15.417714,57.474796 16.202425,57.767452 16.986256,58.356037 
	C16.967617,59.045887 16.949858,59.439812 16.697966,59.951000 
	C16.329981,60.372826 16.196131,60.677383 16.021753,61.346497 
	C15.943083,62.442883 15.904938,63.174713 15.657883,64.032028 
	C15.183688,64.376709 15.034031,64.657539 15.000000,65.000000 
z"/>
<path fill="#8F8FA5" opacity="1.000000" stroke="none" 
	d="
M51.454109,65.000000 
	C52.768665,63.364506 54.537327,61.729008 56.693130,60.318142 
	C57.372406,60.853531 57.664547,61.164291 57.956688,61.475052 
	C58.126778,61.276573 58.296867,61.078091 58.466957,60.879608 
	C57.977615,60.586735 57.488274,60.293861 56.998932,60.000988 
	C57.186157,59.132965 57.373383,58.264946 58.053825,57.167755 
	C58.547039,56.938583 58.986767,56.799114 58.986767,56.799114 
	C59.653149,59.260468 60.319530,61.721821 60.992958,64.591583 
	C57.969406,65.000000 54.938812,65.000000 51.454109,65.000000 
z"/>
<path fill="#8A8BA4" opacity="1.000000" stroke="none" 
	d="
M11.217544,57.043854 
	C6.997523,58.502724 11.272491,62.265385 9.122318,64.659378 
	C9.000000,65.000000 8.500000,65.000000 8.250001,65.000000 
	C6.694323,63.568108 5.388645,62.136219 4.487015,60.339333 
	C5.958992,58.592640 7.026921,57.210941 8.435982,55.895218 
	C9.473326,55.972076 10.169538,55.982967 10.941657,56.260395 
	C11.084224,56.699234 11.150884,56.871544 11.217544,57.043854 
z"/>
<path fill="#9292A9" opacity="1.000000" stroke="none" 
	d="
M43.000000,65.000000 
	C41.285625,65.000000 39.571247,65.000000 37.314735,64.785004 
	C36.568222,64.302177 36.304138,64.121727 35.854370,63.744926 
	C36.149090,62.668545 36.569786,61.875881 37.225487,61.321739 
	C38.982010,62.015587 40.503536,62.470909 42.254951,62.954849 
	C42.484840,62.983467 42.940067,63.069710 42.965137,63.390656 
	C42.993473,64.141068 42.996738,64.570534 43.000000,65.000000 
z"/>
<path fill="#707595" opacity="1.000000" stroke="none" 
	d="
M48.000610,55.999695 
	C48.336445,58.721210 48.672276,61.442722 49.004051,64.582123 
	C48.250000,65.000000 47.500000,65.000000 46.375259,64.627136 
	C45.983418,63.511127 45.966312,62.767979 46.113297,61.674007 
	C46.518108,59.548717 46.758827,57.774250 47.249809,55.998100 
	C47.666920,55.997501 47.833767,55.998596 48.000610,55.999695 
z"/>
<path fill="#4B497E" opacity="1.000000" stroke="none" 
	d="
M32.000000,65.000000 
	C32.000000,65.000000 31.500000,65.000000 31.132416,64.702545 
	C30.508839,63.602760 30.252848,62.800430 30.111002,61.741829 
	C30.469414,60.982288 30.713682,60.479015 30.995987,59.683495 
	C31.362110,58.928654 31.690193,58.466061 32.251450,58.001465 
	C32.484623,57.999454 32.952972,57.997734 32.955093,58.331268 
	C32.972141,59.109100 32.987072,59.553402 32.964149,60.364182 
	C32.617531,62.153774 32.308765,63.576889 32.000000,65.000000 
z"/>
<path fill="#6A6D8C" opacity="1.000000" stroke="none" 
	d="
M36.990486,61.083218 
	C36.569786,61.875881 36.149090,62.668545 35.859074,63.987633 
	C35.989754,64.514053 36.000000,65.000000 36.000000,65.000000 
	C35.555553,65.000000 35.111111,65.000000 34.336632,64.586357 
	C33.992550,62.794250 33.978500,61.415783 33.978622,59.632172 
	C33.994102,58.150455 33.995415,57.073887 34.249069,55.996201 
	C34.669460,55.996384 34.837505,55.997677 35.055782,56.324364 
	C35.742352,57.748905 36.378693,58.848053 37.009628,60.231216 
	C36.999645,60.704567 36.995068,60.893894 36.990486,61.083218 
z"/>
<path fill="#575189" opacity="1.000000" stroke="none" 
	d="
M29.996859,61.998100 
	C30.252848,62.800430 30.508839,63.602760 30.882416,64.702545 
	C29.611111,65.000000 28.222221,65.000000 26.393276,64.677948 
	C25.643740,63.556889 25.334257,62.757874 25.030624,61.723133 
	C25.036474,61.487408 25.040192,61.015827 25.279053,61.012840 
	C25.517916,61.009857 25.995621,61.017178 26.241905,61.272793 
	C27.657745,61.684971 28.827301,61.841537 29.996859,61.998100 
z"/>
<path fill="#9C9BB1" opacity="1.000000" stroke="none" 
	d="
M15.866794,63.906548 
	C15.904938,63.174713 15.943083,62.442883 16.255962,61.362698 
	C16.530695,61.014347 17.001509,61.019436 17.228321,61.021187 
	C17.455133,61.022942 17.908585,61.009937 18.094490,61.249222 
	C18.842194,61.677914 19.403988,61.867329 19.982552,62.423470 
	C19.999546,63.526798 19.999773,64.263397 20.000000,65.000000 
	C19.250000,65.000000 18.500000,65.000000 17.238718,64.768440 
	C16.440556,64.326775 16.153675,64.116661 15.866794,63.906548 
z"/>
<path fill="#8C8DA5" opacity="1.000000" stroke="none" 
	d="
M20.375000,65.000000 
	C19.999773,64.263397 19.999546,63.526798 20.322403,62.403412 
	C21.098499,62.006458 21.551512,61.996292 22.117085,62.198441 
	C22.422037,62.672401 22.657242,62.887165 22.932724,63.379524 
	C22.953459,64.136002 22.976730,64.568001 23.000000,65.000000 
	C22.250000,65.000000 21.500000,65.000000 20.375000,65.000000 
z"/>
<path fill="#7F7394" opacity="1.000000" stroke="none" 
	d="
M23.375000,65.000000 
	C22.976730,64.568001 22.953459,64.136002 22.967804,63.341850 
	C23.005419,62.979694 23.069048,62.900986 23.276907,62.787376 
	C23.744225,62.477852 23.944790,62.233551 24.320953,61.950043 
	C24.555439,61.959217 25.024773,61.958858 25.024773,61.958858 
	C25.334257,62.757874 25.643740,63.556889 25.976612,64.677948 
	C25.250000,65.000000 24.500000,65.000000 23.375000,65.000000 
z"/>
<path fill="#9B90B4" opacity="1.000000" stroke="none" 
	d="
M33.964447,60.037319 
	C33.978500,61.415783 33.992550,62.794250 34.003300,64.586357 
	C33.555553,65.000000 33.111111,65.000000 32.333332,65.000000 
	C32.308765,63.576889 32.617531,62.153774 33.204842,60.371742 
	C33.483387,60.012817 33.964451,60.037319 33.964447,60.037319 
z"/>
<path fill="#767997" opacity="1.000000" stroke="none" 
	d="
M43.333252,65.000000 
	C42.996738,64.570534 42.993473,64.141068 43.227493,63.269806 
	C43.963188,62.546223 44.461590,62.264442 44.978825,62.360031 
	C44.998436,63.491604 44.999218,64.245804 45.000000,65.000000 
	C44.555500,65.000000 44.111004,65.000000 43.333252,65.000000 
z"/>
<path fill="#9090A8" opacity="1.000000" stroke="none" 
	d="
M45.250000,65.000000 
	C44.999218,64.245804 44.998436,63.491604 44.991322,62.363304 
	C44.984989,61.989208 44.999905,62.000000 45.237267,62.004723 
	C45.474632,62.009449 45.949207,62.024834 45.949203,62.024834 
	C45.966312,62.767979 45.983418,63.511127 46.000259,64.627136 
	C46.000000,65.000000 45.500000,65.000000 45.250000,65.000000 
z"/>
<path fill="#8688A5" opacity="1.000000" stroke="none" 
	d="
M15.657883,64.032028 
	C16.153675,64.116661 16.440556,64.326775 16.863718,64.768440 
	C16.555555,65.000000 16.111111,65.000000 15.333333,65.000000 
	C15.034031,64.657539 15.183688,64.376709 15.657883,64.032028 
z"/>
<path fill="#767997" opacity="1.000000" stroke="none" 
	d="
M36.250000,65.000000 
	C36.000000,65.000000 35.989754,64.514053 35.985050,64.271347 
	C36.304138,64.121727 36.568222,64.302177 36.886299,64.785004 
	C37.000000,65.000000 36.500000,65.000000 36.250000,65.000000 
z"/>
<path fill="#8787A2" opacity="1.000000" stroke="none" 
	d="
M7.467927,51.067322 
	C8.902966,47.258598 10.419734,43.635750 15.146576,42.699169 
	C16.194391,42.491554 16.980947,40.965408 18.573151,40.010609 
	C19.490042,39.998390 19.721581,40.021942 19.957344,40.411667 
	C19.944902,41.511581 19.928234,42.245319 19.579046,43.053989 
	C19.152294,44.457233 19.058062,45.785549 18.973179,47.430618 
	C18.987207,48.171238 18.991886,48.595093 18.659321,48.974281 
	C17.314976,48.040943 16.307877,47.152271 15.309968,46.271709 
	C14.709533,48.148445 14.049110,50.212673 13.387718,52.241875 
	C13.386746,52.206844 13.374376,52.137867 13.209488,51.826439 
	C11.992469,51.346676 10.940338,51.178341 9.487743,51.007980 
	C8.547495,51.026409 8.007710,51.046867 7.467927,51.067322 
z"/>
<path fill="#1B1829" opacity="1.000000" stroke="none" 
	d="
M30.716154,12.440008 
	C30.748287,12.670476 30.780418,12.900945 30.891617,13.680817 
	C30.980082,14.659703 30.989485,15.089185 30.709625,15.726305 
	C30.311142,16.605301 30.201920,17.276661 29.628822,17.965576 
	C28.862171,17.919106 28.559395,17.855080 28.123528,17.826054 
	C27.990438,17.861055 27.739202,17.973448 27.418322,18.066015 
	C25.465937,18.768944 23.834433,19.379303 22.202927,19.989664 
	C23.040476,17.254402 23.878023,14.519140 24.916203,11.455392 
	C25.568789,11.387246 26.020742,11.647588 26.822315,12.267601 
	C28.353342,12.564851 29.534748,12.502429 30.716154,12.440008 
z"/>
<path fill="#8687A2" opacity="1.000000" stroke="none" 
	d="
M8.094851,55.829247 
	C7.026921,57.210941 5.958992,58.592640 4.521424,59.983208 
	C2.890610,56.552830 4.591392,54.082054 7.261951,51.760887 
	C7.689790,51.733299 8.012074,52.012115 8.009569,52.402321 
	C8.010143,53.577370 8.013224,54.362217 8.047926,55.316227 
	C8.079547,55.485394 8.094851,55.829247 8.094851,55.829247 
z"/>
<path fill="#261F32" opacity="1.000000" stroke="none" 
	d="
M22.109669,20.224922 
	C23.834433,19.379303 25.465937,18.768944 27.483261,18.410563 
	C27.899557,19.127266 27.930031,19.591988 27.949665,20.268867 
	C27.938824,20.481024 27.955046,20.906973 27.960255,21.167067 
	C27.967192,21.600582 27.968920,21.774006 27.676498,21.990810 
	C26.920012,22.366711 26.457678,22.699228 25.758356,23.018822 
	C25.521368,23.005901 25.046841,23.017859 24.737785,23.010979 
	C23.631477,22.838823 22.834227,22.673548 22.074444,22.116409 
	C22.051001,21.469280 21.990091,21.214012 21.929182,20.958744 
	C21.958258,20.792555 21.987333,20.626368 22.109669,20.224922 
z"/>
<path fill="#2F243B" opacity="1.000000" stroke="none" 
	d="
M22.036976,22.508274 
	C22.834227,22.673548 23.631477,22.838823 24.725077,23.342289 
	C24.691042,24.456543 24.360659,25.232607 23.768835,26.015274 
	C23.051619,26.233923 22.595840,26.445969 22.013641,26.571621 
	C21.887217,26.485228 21.590836,26.408117 21.590836,26.408117 
	C21.575731,25.295246 21.560625,24.182377 21.693714,22.820896 
	C21.841909,22.572287 22.036976,22.508274 22.036976,22.508274 
z"/>
<path fill="#23142B" opacity="1.000000" stroke="none" 
	d="
M21.212336,29.006340 
	C21.271545,28.820986 21.330753,28.635630 21.605721,28.256319 
	C21.821480,28.062363 22.069513,28.036032 22.393301,28.026405 
	C23.148714,28.000887 23.580339,27.984995 24.262102,28.004292 
	C24.679190,28.061523 24.846140,28.083570 24.959602,28.449989 
	C24.550135,29.655117 24.194155,30.515875 23.608624,31.276207 
	C23.067921,31.098516 22.756771,31.021252 22.311562,30.578142 
	C21.855780,29.810312 21.534058,29.408325 21.212336,29.006340 
z"/>
<path fill="#F3E4E9" opacity="1.000000" stroke="none" 
	d="
M20.926689,29.034550 
	C21.534058,29.408325 21.855780,29.810312 21.960320,30.595537 
	C21.519119,31.047781 21.295095,31.116785 20.728210,31.130690 
	C19.923416,31.047474 19.461481,31.019360 18.999548,30.991247 
	C19.546713,30.348417 20.093878,29.705587 20.926689,29.034550 
z"/>
<path fill="#5A556D" opacity="1.000000" stroke="none" 
	d="
M19.266697,37.928730 
	C19.552006,36.576839 19.837313,35.224945 20.388340,33.486961 
	C20.654057,33.100872 20.985067,32.960300 21.256741,33.042633 
	C21.800240,33.381897 22.072065,33.638824 22.063828,34.119125 
	C21.534897,35.213566 21.286032,36.084629 20.925320,37.163742 
	C20.626265,37.635330 20.382656,37.827293 19.879128,37.922825 
	C19.675606,37.897976 19.266697,37.928730 19.266697,37.928730 
z"/>
<path fill="#ABA6AF" opacity="1.000000" stroke="none" 
	d="
M20.985067,32.960300 
	C20.985067,32.960300 20.654057,33.100872 20.475903,33.081184 
	C19.879166,32.594383 19.460583,32.127277 19.020775,31.325706 
	C19.461481,31.019360 19.923416,31.047474 20.707315,31.425568 
	C21.014544,32.170464 20.999805,32.565384 20.985067,32.960300 
z"/>
<path fill="#8687A2" opacity="1.000000" stroke="none" 
	d="
M7.434459,51.153847 
	C8.007710,51.046867 8.547495,51.026409 9.730844,51.127548 
	C10.606235,51.519806 10.838058,51.790462 11.044407,52.055115 
	C11.018932,52.049110 11.063434,52.044807 10.682160,52.025990 
	C9.537950,52.008820 8.775011,52.010468 8.012074,52.012115 
	C8.012074,52.012115 7.689790,51.733299 7.534433,51.578957 
	C7.379077,51.424618 7.400991,51.240376 7.434459,51.153847 
z"/>
<path fill="#70718A" opacity="1.000000" stroke="none" 
	d="
M19.953117,40.045494 
	C19.721581,40.021942 19.490042,39.998390 18.908510,39.951332 
	C18.696281,39.408306 18.834044,38.888783 19.119251,38.148994 
	C19.266697,37.928730 19.675606,37.897976 19.853386,38.272854 
	C20.005148,39.113651 19.979132,39.579575 19.953117,40.045494 
z"/>
<path fill="#E2DDD6" opacity="1.000000" stroke="none" 
	d="
M15.539018,37.477337 
	C15.562769,37.520657 15.515266,37.434017 15.539018,37.477337 
z"/>
<path fill="#888487" opacity="1.000000" stroke="none" 
	d="
M22.074444,22.116409 
	C22.036976,22.508274 21.841909,22.572287 21.773840,22.495880 
	C21.620274,22.194340 21.513378,21.974253 21.458555,21.741879 
	C21.432247,21.630369 21.504393,21.495632 21.730566,21.165079 
	C21.990091,21.214012 22.051001,21.469280 22.074444,22.116409 
z"/>
<path fill="#BEB8B6" opacity="1.000000" stroke="none" 
	d="
M21.438892,26.647789 
	C21.590836,26.408117 21.887217,26.485228 21.968063,26.914696 
	C22.055775,27.574787 22.062643,27.805408 22.069513,28.036032 
	C22.069513,28.036032 21.821480,28.062363 21.721176,27.988253 
	C21.509565,27.571917 21.398258,27.229689 21.438892,26.647789 
z"/>
<path fill="#83839D" opacity="1.000000" stroke="none" 
	d="
M48.300430,55.951412 
	C47.833767,55.998596 47.666920,55.997501 46.942734,55.998817 
	C45.977974,56.004299 45.570549,56.007381 45.107315,55.717834 
	C44.719006,54.954582 44.386505,54.483952 43.637199,54.008087 
	C40.815113,53.669304 38.409836,53.335751 36.001854,52.666100 
	C35.993793,51.881363 35.988434,51.432732 36.025383,50.645050 
	C38.029362,48.197163 39.991028,46.088322 42.374031,43.985252 
	C44.474205,43.990211 46.153053,43.989403 47.956635,44.223030 
	C48.368908,44.649822 48.656445,44.842175 48.963066,45.388344 
	C49.362865,46.526333 49.743584,47.310501 50.264233,48.123524 
	C50.404163,48.152378 50.689545,48.166897 50.896065,48.403488 
	C51.789417,48.418610 52.476254,48.197144 53.330822,47.875801 
	C53.708012,47.611916 53.866871,47.408401 54.313564,47.144165 
	C55.755226,47.779209 56.858452,48.435474 57.961681,49.091743 
	C57.969097,49.262131 57.976513,49.432518 57.709427,49.935680 
	C57.222412,50.843208 57.009899,51.417957 56.797386,51.992706 
	C55.538399,53.727482 54.279415,55.462257 52.940872,57.306664 
	C52.493114,56.348339 51.723789,54.701767 50.777546,52.676540 
	C49.854389,54.044594 49.227322,54.973862 48.300430,55.951412 
M48.536774,49.351395 
	C48.536774,49.351395 48.447411,49.519325 48.447411,49.519325 
	C48.447411,49.519325 48.629349,49.491180 48.536774,49.351395 
z"/>
<path fill="#F1E0E8" opacity="1.000000" stroke="none" 
	d="
M48.943981,45.034527 
	C48.656445,44.842175 48.368908,44.649822 47.893898,43.897545 
	C47.796772,41.191589 47.887112,39.045551 48.322884,36.854401 
	C49.699497,36.392174 50.730682,35.975060 51.761864,35.557945 
	C54.533051,39.449718 58.803680,42.607109 57.971962,48.675102 
	C56.858452,48.435474 55.755226,47.779209 54.082191,47.154228 
	C53.191948,47.358677 53.075516,47.622066 53.163090,47.975677 
	C52.476254,48.197144 51.789417,48.418610 51.013508,48.052338 
	C50.595245,46.627754 50.266056,45.790905 49.687828,44.964020 
	C49.438782,44.973984 48.943981,45.034527 48.943981,45.034527 
z"/>
<path fill="#171424" opacity="1.000000" stroke="none" 
	d="
M36.984558,9.955437 
	C38.575409,9.193856 40.166256,8.432275 41.881683,7.344655 
	C45.787827,7.110876 44.238007,10.314022 44.764954,12.706953 
	C44.013817,14.165902 43.505985,15.081290 43.007576,16.345135 
	C43.029930,17.803408 43.042862,18.913223 43.031586,20.035282 
	C43.007378,20.047523 42.951374,20.078526 42.597637,20.056133 
	C41.299385,20.001612 40.354866,19.969484 39.310394,19.601879 
	C39.117043,18.812513 39.023647,18.358627 38.913063,17.556847 
	C37.922398,16.306166 36.948925,15.403377 36.132858,14.360021 
	C36.544598,13.885175 36.798935,13.550897 37.082890,12.808470 
	C37.069859,11.585360 37.027210,10.770398 36.984558,9.955437 
z"/>
<path fill="#141024" opacity="1.000000" stroke="none" 
	d="
M49.034409,28.880627 
	C49.629612,29.971764 50.224819,31.062901 50.356720,32.464367 
	C47.919449,33.172787 45.945484,33.570873 43.660168,33.924690 
	C43.139626,33.894234 42.930443,33.908043 42.534992,33.731026 
	C42.234573,33.026833 42.120415,32.513462 42.299637,31.972958 
	C43.062012,31.631203 43.531002,31.316574 44.360558,30.991831 
	C46.158886,30.281353 47.596645,29.580990 49.034409,28.880627 
z"/>
<path fill="#360C23" opacity="1.000000" stroke="none" 
	d="
M48.934856,28.594635 
	C47.596645,29.580990 46.158886,30.281353 44.248955,30.733936 
	C43.514065,29.989851 43.251339,29.493546 42.998535,28.741821 
	C43.016834,28.316200 43.025211,28.146000 43.348743,27.949398 
	C44.443970,27.283150 45.224045,26.643297 46.257004,26.002430 
	C46.678467,25.998966 46.847042,25.996517 47.015614,25.994070 
	C47.622177,26.765594 48.228741,27.537117 48.934856,28.594635 
z"/>
<path fill="#1F1A2F" opacity="1.000000" stroke="none" 
	d="
M42.998154,15.996678 
	C43.505985,15.081290 44.013817,14.165902 44.816532,13.103911 
	C45.698620,15.367523 46.285816,17.777739 46.516670,20.591356 
	C45.728977,21.007936 45.297634,21.021112 44.782166,20.886707 
	C44.698036,20.739126 44.541927,20.437016 44.695568,20.052837 
	C44.232189,18.444666 43.615173,17.220671 42.998154,15.996678 
z"/>
<path fill="#4E577C" opacity="1.000000" stroke="none" 
	d="
M51.682068,35.388435 
	C50.730682,35.975060 49.699497,36.392174 48.153198,36.619503 
	C47.090908,36.252949 46.543728,36.076172 46.003174,35.734150 
	C46.009800,35.568901 46.011139,35.235832 46.367558,35.124016 
	C48.453606,34.870331 50.183235,34.728458 51.912865,34.586586 
	C51.653164,34.720661 51.549633,34.931438 51.682068,35.388435 
z"/>
<path fill="#F2E1E9" opacity="1.000000" stroke="none" 
	d="
M51.801773,34.230690 
	C50.183235,34.728458 48.453606,34.870331 46.064064,35.051422 
	C44.993881,35.026276 44.583611,34.961918 44.172104,34.654709 
	C44.170868,34.411865 43.971523,33.968960 43.971523,33.968960 
	C45.945484,33.570873 47.919449,33.172787 50.284454,32.795261 
	C51.013893,33.168816 51.352283,33.521805 51.801773,34.230690 
z"/>
<path fill="#35273B" opacity="1.000000" stroke="none" 
	d="
M44.866291,21.034290 
	C45.297634,21.021112 45.728977,21.007936 46.483009,20.987724 
	C46.874752,22.373240 46.943806,23.765795 47.014236,25.576210 
	C46.847042,25.996517 46.678467,25.998966 46.142868,25.792049 
	C45.585831,25.314093 45.337872,25.119232 45.038712,24.601013 
	C44.985737,23.147379 44.926014,22.090834 44.866291,21.034290 
z"/>
<path fill="#F2E1E9" opacity="1.000000" stroke="none" 
	d="
M56.858246,52.360558 
	C57.009899,51.417957 57.222412,50.843208 57.734703,50.190247 
	C58.352459,52.088615 58.670433,54.065193 58.987587,56.420444 
	C58.986767,56.799114 58.547039,56.938583 58.317139,56.955284 
	C57.697861,55.557461 57.308483,54.142933 56.858246,52.360558 
z"/>
<path fill="#1A182A" opacity="1.000000" stroke="none" 
	d="
M37.053272,13.216619 
	C36.798935,13.550897 36.544598,13.885175 36.054451,14.718437 
	C35.765636,15.454896 35.712643,15.692372 35.295918,15.950029 
	C33.706917,15.970670 32.481644,15.971129 31.187008,15.861197 
	C31.117643,15.750805 30.998886,15.518666 30.998886,15.518666 
	C30.989485,15.089185 30.980082,14.659703 30.918476,14.028829 
	C31.971720,13.605588 33.077164,13.383740 34.930702,13.174884 
	C36.136955,13.197456 36.595112,13.207038 37.053272,13.216619 
z"/>
<path fill="#7E6F7C" opacity="1.000000" stroke="none" 
	d="
M37.082890,12.808470 
	C36.595112,13.207038 36.136955,13.197456 35.345642,13.101254 
	C35.009121,12.551357 35.005753,12.088081 34.997677,10.955913 
	C34.995747,9.857044 34.998528,9.427070 35.001305,8.997095 
	C35.545845,9.162093 36.090385,9.327091 36.809742,9.723763 
	C37.027210,10.770398 37.069859,11.585360 37.082890,12.808470 
z"/>
<path fill="#7A6571" opacity="1.000000" stroke="none" 
	d="
M30.821632,12.097439 
	C29.534748,12.502429 28.353342,12.564851 27.084570,12.321194 
	C27.428886,11.677363 27.860569,11.339613 28.955956,11.007808 
	C30.102020,11.026408 30.584383,11.039063 31.066748,11.051718 
	C31.020201,11.286102 30.973656,11.520486 30.821632,12.097439 
z"/>
<path fill="#625866" opacity="1.000000" stroke="none" 
	d="
M34.652485,8.986684 
	C34.998528,9.427070 34.995747,9.857044 34.996002,10.608431 
	C34.158722,10.619144 33.318413,10.308448 32.478100,9.997749 
	C33.086620,9.657257 33.695141,9.316765 34.652485,8.986684 
z"/>
<path fill="#625866" opacity="1.000000" stroke="none" 
	d="
M30.958069,10.761824 
	C30.584383,11.039063 30.102020,11.026408 29.257133,10.997660 
	C29.546206,10.811687 30.197798,10.641807 30.958069,10.761824 
z"/>
<path fill="#8889A2" opacity="1.000000" stroke="none" 
	d="
M17.908585,61.009937 
	C17.908585,61.009937 17.455133,61.022942 17.218735,60.724075 
	C16.965593,60.228054 16.948847,60.030895 16.932100,59.833736 
	C16.949858,59.439812 16.967617,59.045887 17.023277,57.979256 
	C17.717197,54.875092 18.373211,52.443634 19.323208,49.982239 
	C20.744905,49.972488 21.872623,49.992680 22.999577,50.259560 
	C22.998812,50.506245 22.999874,50.999619 23.000843,51.400162 
	C22.983450,52.869144 22.965084,53.937584 22.697178,55.254471 
	C22.298553,56.668743 22.149471,57.834568 21.750641,59.000576 
	C21.500893,59.000763 21.001589,59.000290 20.652842,59.007072 
	C19.535454,59.667294 18.766813,60.320724 17.979485,60.992241 
	C17.960798,61.010326 17.908585,61.009937 17.908585,61.009937 
z"/>
<path fill="#60688D" opacity="1.000000" stroke="none" 
	d="
M19.029224,50.012177 
	C18.373211,52.443634 17.717197,54.875092 17.024158,57.683331 
	C16.202425,57.767452 15.417714,57.474796 14.291674,56.685860 
	C13.763125,54.885349 13.575908,53.581127 13.388689,52.276901 
	C14.049110,50.212673 14.709533,48.148445 15.309968,46.271709 
	C16.307877,47.152271 17.314976,48.040943 18.661846,49.222664 
	C19.001616,49.515717 19.029226,50.012177 19.029224,50.012177 
z"/>
<path fill="#BBB3C8" opacity="1.000000" stroke="none" 
	d="
M13.387718,52.241875 
	C13.575908,53.581127 13.763125,54.885349 13.983320,56.587074 
	C13.560137,57.013409 13.103977,57.042244 12.187014,56.817577 
	C11.439390,56.374004 11.152571,56.183933 10.865751,55.993862 
	C10.169538,55.982967 9.473326,55.972076 8.435982,55.895218 
	C8.094851,55.829247 8.079547,55.485394 8.402494,55.239983 
	C9.504774,54.011318 10.284104,53.028065 11.063435,52.044807 
	C11.063434,52.044807 11.018932,52.049110 11.421315,52.133900 
	C12.340590,52.191750 12.857484,52.164810 13.374376,52.137871 
	C13.374376,52.137867 13.386746,52.206844 13.387718,52.241875 
z"/>
<path fill="#8688A5" opacity="1.000000" stroke="none" 
	d="
M16.697966,59.951000 
	C16.948847,60.030895 16.965593,60.228054 16.991924,60.722324 
	C17.001509,61.019436 16.530695,61.014347 16.296486,60.998146 
	C16.196131,60.677383 16.329981,60.372826 16.697966,59.951000 
z"/>
<path fill="#E0D2DE" opacity="1.000000" stroke="none" 
	d="
M10.941658,56.260395 
	C11.152571,56.183933 11.439390,56.374004 11.843111,56.796341 
	C11.960011,57.028606 11.588069,57.037464 11.402806,57.040657 
	C11.150884,56.871544 11.084224,56.699234 10.941658,56.260395 
z"/>
<path fill="#8687A0" opacity="1.000000" stroke="none" 
	d="
M56.999466,60.000496 
	C57.488274,60.293861 57.977615,60.586735 58.466957,60.879608 
	C58.296867,61.078091 58.126778,61.276573 57.956688,61.475052 
	C57.664547,61.164291 57.372406,60.853531 57.040627,60.270851 
	C57.000984,59.998932 57.000000,60.000000 56.999466,60.000496 
z"/>
<path fill="#646B8C" opacity="1.000000" stroke="none" 
	d="
M44.054008,54.013321 
	C44.386505,54.483952 44.719006,54.954582 45.062962,56.143715 
	C45.049583,58.574814 45.024742,60.287407 44.999905,62.000000 
	C44.999905,62.000000 44.984989,61.989208 44.972492,61.985931 
	C44.461590,62.264442 43.963188,62.546223 43.202423,62.948860 
	C42.940067,63.069710 42.484840,62.983467 42.247871,62.634357 
	C42.006981,61.856190 42.003059,61.427128 41.960602,60.670715 
	C40.954014,59.555264 39.985966,58.767166 39.012074,57.736107 
	C39.006229,57.493141 39.001244,57.006706 39.365410,56.998085 
	C41.171055,55.997417 42.612530,55.005371 44.054008,54.013321 
z"/>
<path fill="#6E7495" opacity="1.000000" stroke="none" 
	d="
M41.999138,60.998070 
	C42.003059,61.427128 42.006981,61.856190 42.017982,62.605740 
	C40.503536,62.470909 38.982010,62.015587 37.225487,61.321739 
	C36.995068,60.893894 36.999645,60.704567 37.371765,60.285767 
	C39.159252,60.370220 40.579193,60.684143 41.999138,60.998070 
z"/>
<path fill="#8486A0" opacity="1.000000" stroke="none" 
	d="
M45.237267,62.004723 
	C45.024742,60.287407 45.049583,58.574814 45.118774,56.436340 
	C45.570549,56.007381 45.977974,56.004299 46.692467,56.000504 
	C46.758827,57.774250 46.518108,59.548717 46.113297,61.674007 
	C45.949207,62.024834 45.474632,62.009449 45.237267,62.004723 
z"/>
<path fill="#655D9F" opacity="1.000000" stroke="none" 
	d="
M32.018276,58.003471 
	C31.690193,58.466061 31.362110,58.928654 30.639664,59.691788 
	C29.160543,59.681187 28.075783,59.370041 27.160776,58.805958 
	C27.918661,58.007263 28.506794,57.461502 29.401352,56.935974 
	C30.118004,56.968388 30.528231,56.980576 31.190128,56.992760 
	C31.609472,56.986683 31.777143,56.980610 31.969269,57.231331 
	C32.001907,57.659916 32.010094,57.831696 32.018276,58.003471 
z"/>
<path fill="#5C5594" opacity="1.000000" stroke="none" 
	d="
M26.991024,59.058891 
	C28.075783,59.370041 29.160543,59.681187 30.601627,59.984039 
	C30.713682,60.479015 30.469414,60.982288 30.111002,61.741829 
	C28.827301,61.841537 27.657745,61.684971 26.245071,60.938019 
	C26.002958,59.903069 26.003960,59.458508 26.251465,59.024673 
	C26.497971,59.035397 26.991024,59.058891 26.991024,59.058891 
z"/>
<path fill="#84769C" opacity="1.000000" stroke="none" 
	d="
M33.978622,59.632172 
	C33.964451,60.037319 33.483387,60.012817 33.242695,60.005257 
	C32.987072,59.553402 32.972141,59.109100 32.976784,57.996834 
	C33.008671,56.882591 33.020985,56.436314 33.274139,55.993599 
	C33.514984,55.997162 33.996723,55.997318 33.996727,55.997318 
	C33.995415,57.073887 33.994102,58.150455 33.978622,59.632172 
z"/>
<path fill="#4C4878" opacity="1.000000" stroke="none" 
	d="
M33.033298,55.990036 
	C33.020985,56.436314 33.008671,56.882591 32.974667,57.663300 
	C32.952972,57.997734 32.484623,57.999454 32.251450,58.001465 
	C32.010094,57.831696 32.001907,57.659916 31.998932,56.910774 
	C32.040977,55.905376 32.077812,55.477337 32.307777,55.040733 
	C32.500904,55.032169 32.887520,55.036114 32.939812,55.272175 
	C32.992100,55.508236 33.033298,55.990036 33.033298,55.990036 
z"/>
<path fill="#9090A7" opacity="1.000000" stroke="none" 
	d="
M41.960602,60.670715 
	C40.579193,60.684143 39.159252,60.370220 37.377171,60.001747 
	C36.378693,58.848053 35.742352,57.748905 35.051857,56.326160 
	C34.997700,56.002560 34.989445,56.020741 35.327332,56.027000 
	C36.115856,56.029346 36.566490,56.025429 37.013916,56.011707 
	C37.010708,56.001904 37.000893,56.015186 37.113304,56.284180 
	C37.823120,57.028473 38.420517,57.503773 39.017918,57.979069 
	C39.985966,58.767166 40.954014,59.555264 41.960602,60.670715 
z"/>
<path fill="#8E85A8" opacity="1.000000" stroke="none" 
	d="
M33.274139,55.993599 
	C33.033298,55.990036 32.992100,55.508236 32.976242,54.889328 
	C33.005180,53.504536 33.049976,52.738659 33.403877,51.981140 
	C34.125259,51.984612 34.537540,51.979717 34.972012,52.314034 
	C35.003700,53.106064 35.013195,53.558884 35.008499,54.346191 
	C34.992687,55.127369 34.991066,55.574055 34.989445,56.020741 
	C34.989445,56.020741 34.997700,56.002560 35.001625,56.000763 
	C34.837505,55.997677 34.669460,55.996384 34.249069,55.996201 
	C33.996723,55.997318 33.514984,55.997162 33.274139,55.993599 
z"/>
<path fill="#756AB0" opacity="1.000000" stroke="none" 
	d="
M25.030624,61.723133 
	C25.024773,61.958858 24.555439,61.959217 24.308048,61.714272 
	C24.060659,61.469326 24.031019,60.996838 24.056953,60.713692 
	C24.380629,59.976357 24.678370,59.522160 24.987804,59.392235 
	C25.013062,60.149612 25.026627,60.582718 25.040192,61.015827 
	C25.040192,61.015827 25.036474,61.487408 25.030624,61.723133 
z"/>
<path fill="#655D9F" opacity="1.000000" stroke="none" 
	d="
M25.279053,61.012840 
	C25.026627,60.582718 25.013062,60.149612 24.990429,59.372475 
	C24.981361,59.028446 25.007277,59.004303 25.255836,59.003006 
	C25.504395,59.001709 26.001516,58.999657 26.001268,59.000465 
	C26.001020,59.001278 26.004961,59.013947 26.004961,59.013947 
	C26.003960,59.458508 26.002958,59.903069 25.998789,60.682404 
	C25.995621,61.017178 25.517916,61.009857 25.279053,61.012840 
z"/>
<path fill="#707595" opacity="1.000000" stroke="none" 
	d="
M22.004524,61.986122 
	C21.551512,61.996292 21.098499,62.006458 20.305635,62.036682 
	C19.403988,61.867329 18.842194,61.677914 18.094490,61.249222 
	C17.908585,61.009937 17.960798,61.010326 18.315781,61.000801 
	C19.448210,60.660946 20.225660,60.330612 21.253422,60.000164 
	C21.670610,59.999828 21.837484,59.999607 22.018629,60.232792 
	C22.032898,60.466194 22.051102,60.933521 22.038124,61.196613 
	C22.018274,61.635174 22.011400,61.810646 22.004524,61.986122 
z"/>
<path fill="#7F7394" opacity="1.000000" stroke="none" 
	d="
M22.117085,62.198437 
	C22.011400,61.810646 22.018274,61.635174 22.272285,61.217098 
	C22.519423,60.974491 22.989613,61.005253 22.988178,61.322495 
	C23.014177,62.060154 23.041613,62.480568 23.069048,62.900986 
	C23.069048,62.900986 23.005419,62.979694 22.970339,63.017372 
	C22.657242,62.887165 22.422037,62.672401 22.117085,62.198437 
z"/>
<path fill="#8F8FA5" opacity="1.000000" stroke="none" 
	d="
M23.276907,62.787376 
	C23.041613,62.480568 23.014177,62.060154 23.248589,61.320423 
	C23.683964,60.999687 23.857491,60.998260 24.031019,60.996838 
	C24.031019,60.996838 24.060659,61.469326 24.073563,61.705093 
	C23.944790,62.233551 23.744225,62.477852 23.276907,62.787376 
z"/>
<path fill="#636A8F" opacity="1.000000" stroke="none" 
	d="
M18.963827,47.113861 
	C19.058062,45.785549 19.152294,44.457233 19.917000,43.060860 
	C21.036177,42.987759 21.484880,42.982719 21.958147,43.376160 
	C21.974731,44.834797 21.966749,45.894962 21.708721,46.861332 
	C20.627058,46.882980 19.795443,46.998417 18.963827,47.113861 
z"/>
<path fill="#596188" opacity="1.000000" stroke="none" 
	d="
M21.933582,42.977680 
	C21.484880,42.982719 21.036177,42.987759 20.249519,42.985924 
	C19.928234,42.245319 19.944902,41.511581 19.957344,40.411667 
	C19.979132,39.579575 20.005148,39.113651 20.056906,38.297703 
	C20.382656,37.827293 20.626265,37.635330 21.162287,37.178566 
	C21.511099,36.985344 21.986429,36.999863 22.219164,37.100845 
	C22.666098,37.458363 22.880299,37.714893 23.061363,38.318439 
	C22.995907,39.129520 22.963585,39.593590 22.694508,40.273666 
	C22.283028,41.319016 22.108307,42.148346 21.933582,42.977680 
z"/>
<path fill="#7C7F9D" opacity="1.000000" stroke="none" 
	d="
M18.973179,47.430618 
	C19.795443,46.998417 20.627058,46.882980 21.846251,47.159264 
	C22.489330,48.371613 22.744835,49.192242 23.000340,50.012871 
	C21.872623,49.992680 20.744905,49.972488 19.323208,49.982239 
	C19.029226,50.012177 19.001616,49.515717 18.999092,49.267334 
	C18.991886,48.595093 18.987207,48.171238 18.973179,47.430618 
z"/>
<path fill="#626B93" opacity="1.000000" stroke="none" 
	d="
M13.209488,51.826439 
	C12.857484,52.164810 12.340590,52.191750 11.446791,52.139908 
	C10.838058,51.790462 10.606235,51.519806 10.131310,51.129578 
	C10.940338,51.178341 11.992469,51.346676 13.209488,51.826439 
z"/>
<path fill="#BE909B" opacity="1.000000" stroke="none" 
	d="
M28.256618,17.791054 
	C28.559395,17.855080 28.862171,17.919106 29.922691,17.852720 
	C30.845175,17.591084 31.009916,17.459858 31.142681,17.556864 
	C31.110706,17.785097 30.933401,18.202213 31.070858,18.398951 
	C31.458668,18.820295 31.751886,18.940498 32.471245,19.036688 
	C33.612095,19.309420 34.369678,19.501759 35.230114,19.988741 
	C36.469841,20.978134 37.606709,21.672886 38.821384,22.540607 
	C38.899189,22.713575 38.778431,23.073164 38.339382,23.044250 
	C36.127117,22.931967 34.353901,22.848597 32.588295,22.765585 
	C32.371433,23.914549 32.164093,25.013065 31.664196,26.041185 
	C30.804535,25.790445 30.237427,25.610104 29.608768,25.072727 
	C29.279064,23.786648 29.010914,22.857603 28.843891,21.968855 
	C28.945021,22.009153 29.162012,22.027000 29.286091,21.951090 
	C29.626995,21.663200 29.695801,21.407497 29.313419,21.058516 
	C28.805836,21.021427 28.601421,21.033890 28.705627,20.736029 
	C29.034758,20.134651 29.055269,19.843597 29.157272,19.200775 
	C28.911385,18.496353 28.584002,18.143703 28.256618,17.791054 
z"/>
<path fill="#365060" opacity="1.000000" stroke="none" 
	d="
M28.123528,17.826054 
	C28.584002,18.143703 28.911385,18.496353 28.907749,19.389769 
	C28.371325,19.972591 28.165915,20.014650 27.960506,20.056711 
	C27.930031,19.591988 27.899557,19.127266 27.804142,18.317995 
	C27.739202,17.973448 27.990438,17.861055 28.123528,17.826054 
z"/>
<path fill="#365060" opacity="1.000000" stroke="none" 
	d="
M31.174658,17.328630 
	C31.009916,17.459858 30.845175,17.591084 30.386566,17.835163 
	C30.201920,17.276661 30.311142,16.605301 30.709625,15.726305 
	C30.998886,15.518666 31.117643,15.750805 31.150486,16.088139 
	C31.177750,16.726498 31.174860,17.027552 31.174658,17.328630 
z"/>
<path fill="#666D90" opacity="1.000000" stroke="none" 
	d="
M10.682161,52.025990 
	C10.284104,53.028065 9.504774,54.011318 8.370873,55.070816 
	C8.013224,54.362217 8.010143,53.577370 8.009569,52.402321 
	C8.775011,52.010468 9.537950,52.008820 10.682161,52.025990 
z"/>
<path fill="#422339" opacity="1.000000" stroke="none" 
	d="
M28.742764,21.928556 
	C29.010914,22.857603 29.279064,23.786648 29.437138,25.223358 
	C28.879700,26.151218 28.432337,26.571415 27.664852,26.997635 
	C26.918671,27.014898 26.492607,27.026138 26.049355,26.636602 
	C26.019890,25.167799 26.007616,24.099773 25.995344,23.031746 
	C26.457678,22.699228 26.920012,22.366711 27.870123,22.000757 
	C28.357899,21.967321 28.742764,21.928556 28.742764,21.928556 
z"/>
<path fill="#7F1A37" opacity="1.000000" stroke="none" 
	d="
M25.758356,23.018824 
	C26.007616,24.099773 26.019890,25.167799 25.828430,26.765583 
	C25.420830,27.565432 25.216961,27.835526 25.013092,28.105619 
	C24.846140,28.083570 24.679190,28.061523 24.251995,27.677849 
	C24.004593,26.880369 24.017435,26.444521 24.030275,26.008671 
	C24.360659,25.232607 24.691042,24.456543 25.034134,23.349171 
	C25.046841,23.017859 25.521368,23.005901 25.758356,23.018824 
z"/>
<path fill="#365060" opacity="1.000000" stroke="none" 
	d="
M28.843891,21.968855 
	C28.742764,21.928556 28.357899,21.967321 28.164274,21.957375 
	C27.968920,21.774006 27.967192,21.600582 28.075968,21.186533 
	C28.186474,20.945906 28.397007,21.046352 28.397007,21.046352 
	C28.601421,21.033890 28.805836,21.021427 29.088207,21.233547 
	C29.164780,21.647753 29.163395,21.837378 29.162012,22.027000 
	C29.162012,22.027000 28.945021,22.009153 28.843891,21.968855 
z"/>
<path fill="#3A2A42" opacity="1.000000" stroke="none" 
	d="
M28.705627,20.736029 
	C28.397007,21.046352 28.186474,20.945906 28.070759,20.926439 
	C27.955046,20.906973 27.938824,20.481024 27.949665,20.268867 
	C28.165915,20.014650 28.371325,19.972591 28.826256,19.741539 
	C29.055269,19.843597 29.034758,20.134651 28.705627,20.736029 
z"/>
<path fill="#3A2A42" opacity="1.000000" stroke="none" 
	d="
M23.768837,26.015274 
	C24.017435,26.444521 24.004593,26.880369 24.001858,27.642662 
	C23.580339,27.984995 23.148714,28.000887 22.393301,28.026405 
	C22.062643,27.805408 22.055775,27.574787 22.094486,27.001091 
	C22.595840,26.445969 23.051619,26.233923 23.768837,26.015274 
z"/>
<path fill="#272033" opacity="1.000000" stroke="none" 
	d="
M24.959602,28.449989 
	C25.216961,27.835526 25.420830,27.565432 25.845621,27.166359 
	C26.492607,27.026138 26.918671,27.014898 27.670496,27.006723 
	C27.996260,27.009789 27.991936,27.028275 27.992132,27.272738 
	C27.992329,27.517200 27.993429,28.006786 27.987358,28.252209 
	C27.981285,28.497631 27.976833,28.988604 27.747995,29.167917 
	C27.342018,29.889046 27.164881,30.430861 26.724747,31.227139 
	C26.207256,32.442085 25.952761,33.402569 25.348755,34.423592 
	C24.504889,34.015884 24.010532,33.547634 23.635475,32.811584 
	C23.782576,32.154736 23.810377,31.765684 23.838177,31.376633 
	C24.194155,30.515875 24.550135,29.655117 24.959602,28.449989 
z"/>
<path fill="#8687A0" opacity="1.000000" stroke="none" 
	d="
M23.608624,31.276207 
	C23.810377,31.765684 23.782576,32.154736 23.484192,32.908669 
	C22.923704,33.480953 22.633799,33.688354 22.343891,33.895756 
	C22.072065,33.638824 21.800240,33.381897 21.256741,33.042633 
	C20.999805,32.565384 21.014544,32.170464 21.050175,31.480667 
	C21.295095,31.116785 21.519119,31.047781 22.094381,30.961382 
	C22.756771,31.021252 23.067921,31.098516 23.608624,31.276207 
z"/>
<path fill="#7D7E98" opacity="1.000000" stroke="none" 
	d="
M22.063828,34.119125 
	C22.633799,33.688354 22.923704,33.480953 23.364893,33.176468 
	C24.010532,33.547634 24.504889,34.015884 25.341953,34.514061 
	C25.684662,34.543983 25.833321,34.648014 25.854347,34.641312 
	C25.875374,34.634605 25.868805,34.599834 25.532288,34.655701 
	C24.125990,35.474327 23.056210,36.237095 21.986429,36.999863 
	C21.986429,36.999863 21.511099,36.985344 21.274132,36.970520 
	C21.286032,36.084629 21.534897,35.213566 22.063828,34.119125 
z"/>
<path fill="#7D7E98" opacity="1.000000" stroke="none" 
	d="
M45.996552,35.899399 
	C46.543728,36.076172 47.090908,36.252949 47.807770,36.664619 
	C47.887112,39.045551 47.796772,41.191589 47.769165,43.663109 
	C46.153053,43.989403 44.474205,43.990211 42.387173,43.739910 
	C41.978985,43.488800 41.996521,42.997379 42.122490,42.945076 
	C42.166679,42.929836 42.084900,42.966904 41.689171,42.989174 
	C40.034317,42.637794 38.693417,42.301205 37.318443,41.664440 
	C37.264919,40.776814 37.245464,40.189362 37.497196,39.427666 
	C38.517639,38.510536 39.266903,37.767651 40.167904,36.885872 
	C40.501781,36.535370 40.721252,36.374790 40.928291,36.391834 
	C40.878532,36.518425 40.914169,36.792774 41.004448,37.086082 
	C41.422104,37.606640 41.749477,37.833885 42.405617,38.017490 
	C43.821770,37.282364 44.909161,36.590881 45.996552,35.899399 
z"/>
<path fill="#596086" opacity="1.000000" stroke="none" 
	d="
M37.352512,41.964619 
	C38.693417,42.301205 40.034317,42.637794 41.687611,42.987198 
	C42.000000,43.000011 41.996521,42.997379 41.996521,42.997379 
	C41.996521,42.997379 41.978985,43.488800 41.965843,43.734142 
	C39.991028,46.088322 38.029362,48.197163 35.810287,50.646461 
	C35.552883,50.986923 35.123058,50.943462 35.089439,50.520298 
	C35.047436,48.391754 35.039043,46.686378 35.272629,44.773121 
	C35.676682,43.743835 35.838760,42.922428 36.339157,42.070877 
	C36.902485,42.015358 37.127499,41.989990 37.352512,41.964619 
z"/>
<path fill="#8B8BA3" opacity="1.000000" stroke="none" 
	d="
M43.637199,54.008087 
	C42.612530,55.005371 41.171055,55.997417 39.190254,56.760017 
	C38.100918,56.358776 37.550907,56.186981 37.000893,56.015186 
	C37.000893,56.015186 37.010708,56.001904 36.916801,55.743702 
	C36.538334,54.995785 36.253780,54.506073 35.982430,53.762970 
	C35.998611,53.340454 36.001587,53.171326 36.004559,53.002197 
	C38.409836,53.335751 40.815113,53.669304 43.637199,54.008087 
z"/>
<path fill="#B0A8BA" opacity="1.000000" stroke="none" 
	d="
M49.936874,44.954056 
	C50.266056,45.790905 50.595245,46.627754 50.806992,47.815750 
	C50.689545,48.166897 50.404163,48.152378 50.217476,47.731552 
	C49.999481,46.525173 49.968178,45.739613 49.936874,44.954056 
z"/>
<path fill="#D6C8D5" opacity="1.000000" stroke="none" 
	d="
M49.687828,44.964020 
	C49.968178,45.739613 49.999481,46.525173 50.077545,47.702698 
	C49.743584,47.310501 49.362865,46.526333 48.963066,45.388344 
	C48.943981,45.034527 49.438782,44.973984 49.687828,44.964020 
z"/>
<path fill="#72748D" opacity="1.000000" stroke="none" 
	d="
M36.001854,52.666100 
	C36.001587,53.171326 35.998611,53.340454 35.746071,53.757858 
	C35.496502,54.006138 35.022690,54.011703 35.022690,54.011703 
	C35.013195,53.558884 35.003700,53.106064 35.007439,52.054970 
	C35.054806,51.285614 35.088932,51.114536 35.123058,50.943462 
	C35.123058,50.943462 35.552883,50.986923 35.767975,50.985512 
	C35.988434,51.432732 35.993793,51.881363 36.001854,52.666100 
z"/>
<path fill="#B0A8BA" opacity="1.000000" stroke="none" 
	d="
M48.583061,49.421288 
	C48.629349,49.491180 48.447411,49.519325 48.447411,49.519325 
	C48.447411,49.519325 48.536774,49.351395 48.583061,49.421288 
z"/>
<path fill="#8687A0" opacity="1.000000" stroke="none" 
	d="
M53.330822,47.875801 
	C53.075516,47.622066 53.191948,47.358677 53.743759,47.175446 
	C53.866871,47.408401 53.708012,47.611916 53.330822,47.875801 
z"/>
<path fill="#1E1829" opacity="1.000000" stroke="none" 
	d="
M38.778435,23.073164 
	C38.778431,23.073164 38.899189,22.713575 38.912254,22.256805 
	C38.966057,21.195145 39.006798,20.590254 39.139473,19.982668 
	C39.231411,19.979973 39.410351,19.937359 39.410351,19.937359 
	C40.354866,19.969484 41.299385,20.001612 42.612724,20.257854 
	C42.981552,20.481972 42.998394,20.886703 43.006149,21.282290 
	C43.062408,22.717297 43.110912,23.756718 43.111328,25.191845 
	C43.053356,26.383633 43.043476,27.179714 43.033592,27.975798 
	C43.025211,28.146000 43.016834,28.316200 42.789303,28.860573 
	C42.309319,29.436304 42.117973,29.690233 41.629562,29.996702 
	C40.285568,29.993858 39.308128,29.990841 38.247498,29.604248 
	C37.978775,28.737185 37.793243,28.253695 37.824005,27.464542 
	C38.270168,26.466171 38.500038,25.773462 38.827980,24.752224 
	C38.876846,23.973518 38.827641,23.523340 38.778435,23.073164 
z"/>
<path fill="#6F545F" opacity="1.000000" stroke="none" 
	d="
M35.659645,15.929848 
	C35.712643,15.692372 35.765636,15.454896 35.897041,14.859005 
	C36.948925,15.403377 37.922398,16.306166 38.605186,17.585529 
	C37.905197,18.019455 37.495888,18.076807 36.827282,17.988152 
	C36.323627,17.534946 36.079273,17.227751 35.830017,16.665993 
	C35.769962,16.250902 35.714802,16.090376 35.659645,15.929848 
z"/>
<path fill="#5D4250" opacity="1.000000" stroke="none" 
	d="
M43.007576,16.345135 
	C43.615173,17.220671 44.232189,18.444666 44.521393,20.020672 
	C44.193577,20.372684 43.833130,20.342430 43.636547,20.268055 
	C43.439964,20.193682 43.055794,20.023039 43.055794,20.023039 
	C43.042862,18.913223 43.029930,17.803408 43.007576,16.345135 
z"/>
<path fill="#2B2B38" opacity="1.000000" stroke="none" 
	d="
M37.086582,18.134159 
	C37.495888,18.076807 37.905197,18.019455 38.622375,17.933422 
	C39.023647,18.358627 39.117043,18.812513 39.310394,19.601879 
	C39.410351,19.937359 39.231411,19.979973 38.849220,19.903160 
	C37.948391,19.574450 37.429752,19.322552 36.953751,18.836300 
	C36.996384,18.601946 37.086582,18.134161 37.086582,18.134159 
z"/>
<path fill="#1F1A2F" opacity="1.000000" stroke="none" 
	d="
M42.998394,20.886703 
	C42.998394,20.886703 42.981552,20.481972 42.966461,20.280249 
	C42.951374,20.078526 43.007378,20.047523 43.031586,20.035282 
	C43.055794,20.023039 43.439964,20.193682 43.518639,20.379776 
	C43.411205,20.698038 43.211567,20.804983 42.998394,20.886703 
z"/>
<path fill="#211F32" opacity="1.000000" stroke="none" 
	d="
M38.330685,29.987822 
	C39.308128,29.990841 40.285568,29.993858 41.631088,30.330677 
	C42.001530,31.109682 42.003895,31.554886 42.006256,32.000088 
	C42.120415,32.513462 42.234573,33.026833 42.511993,33.985939 
	C42.736465,34.590900 42.797676,34.750134 42.881771,34.939438 
	C42.904659,34.969517 42.972565,34.936310 42.667679,34.874557 
	C41.935497,35.211445 41.508205,35.610085 41.013779,36.056248 
	C40.946648,36.103771 40.978050,36.265244 40.978050,36.265244 
	C40.721252,36.374790 40.501781,36.535370 39.902489,36.675240 
	C38.910809,35.627388 38.336285,34.651272 37.778061,33.347610 
	C37.807011,32.359108 37.819660,31.698143 37.953346,30.773149 
	C38.159813,30.335354 38.245247,30.161587 38.330685,29.987822 
z"/>
<path fill="#280E24" opacity="1.000000" stroke="none" 
	d="
M42.299637,31.972958 
	C42.003895,31.554886 42.001530,31.109682 41.997643,30.330505 
	C42.117973,29.690233 42.309319,29.436304 42.779381,29.115993 
	C43.251339,29.493546 43.514065,29.989851 43.888390,30.744053 
	C43.531002,31.316574 43.062012,31.631203 42.299637,31.972958 
z"/>
<path fill="#757791" opacity="1.000000" stroke="none" 
	d="
M42.858883,34.909363 
	C42.797676,34.750134 42.736465,34.590900 42.698257,34.176758 
	C42.930443,33.908043 43.139626,33.894234 43.660168,33.924690 
	C43.971523,33.968960 44.170868,34.411865 43.843586,34.688416 
	C43.297161,34.946430 43.078022,34.927898 42.858883,34.909363 
z"/>
<path fill="#4C0D25" opacity="1.000000" stroke="none" 
	d="
M43.348743,27.949398 
	C43.043476,27.179714 43.053356,26.383633 43.419636,25.254786 
	C44.194679,24.947382 44.613319,24.972744 45.031963,24.998106 
	C45.337872,25.119232 45.585831,25.314093 45.889984,25.793066 
	C45.224045,26.643297 44.443970,27.283150 43.348743,27.949398 
z"/>
<path fill="#C10E2D" opacity="1.000000" stroke="none" 
	d="
M45.038712,24.601013 
	C44.613319,24.972744 44.194679,24.947382 43.467728,24.859081 
	C43.110912,23.756718 43.062408,22.717297 43.006149,21.282290 
	C43.211567,20.804983 43.411205,20.698038 43.715218,20.454149 
	C43.833130,20.342430 44.193577,20.372684 44.367752,20.404850 
	C44.541927,20.437016 44.698036,20.739126 44.782166,20.886707 
	C44.926014,22.090834 44.985737,23.147379 45.038712,24.601013 
z"/>
<path fill="#545D83" opacity="1.000000" stroke="none" 
	d="
M42.881771,34.939438 
	C43.078022,34.927898 43.297161,34.946430 43.844818,34.931259 
	C44.583611,34.961918 44.993881,35.026276 45.707649,35.163235 
	C46.011139,35.235832 46.009800,35.568901 46.003174,35.734150 
	C44.909161,36.590881 43.821770,37.282364 42.250534,37.773369 
	C41.482513,37.312851 41.198341,37.052814 40.914169,36.792774 
	C40.914169,36.792774 40.878532,36.518425 40.928291,36.391834 
	C40.978050,36.265244 40.946648,36.103771 41.303108,36.021515 
	C42.097237,35.604942 42.534901,35.270626 42.972565,34.936310 
	C42.972565,34.936310 42.904659,34.969517 42.881771,34.939438 
z"/>
<path fill="#282336" opacity="1.000000" stroke="none" 
	d="
M35.295918,15.950029 
	C35.714802,16.090376 35.769962,16.250902 35.629570,16.882748 
	C35.305893,17.922569 35.177769,18.491076 35.044910,19.221165 
	C35.040176,19.382746 35.127258,19.694098 35.127258,19.694098 
	C34.369678,19.501759 33.612095,19.309420 32.385201,18.763729 
	C31.588392,18.340990 31.260897,18.271603 30.933401,18.202213 
	C30.933401,18.202213 31.110706,17.785097 31.142681,17.556864 
	C31.174860,17.027552 31.177750,16.726498 31.219849,16.198532 
	C32.481644,15.971129 33.706917,15.970670 35.295918,15.950029 
z"/>
<path fill="#8586A0" opacity="1.000000" stroke="none" 
	d="
M22.999577,50.259560 
	C22.744835,49.192242 22.489330,48.371613 22.096296,47.253052 
	C21.966749,45.894962 21.974731,44.834797 21.958149,43.376160 
	C22.108307,42.148346 22.283028,41.319016 22.755928,40.576672 
	C23.119257,41.071304 23.184410,41.478947 23.283546,42.121506 
	C23.482389,42.662788 23.738335,42.828964 24.286299,43.001564 
	C24.719109,43.389534 24.908506,43.660580 25.039396,44.298050 
	C25.028753,45.084030 25.034143,45.533268 25.021336,46.237690 
	C25.009933,46.663303 25.016727,46.833729 24.901287,47.295700 
	C24.562601,48.386612 24.346149,49.185966 24.091515,50.238655 
	C24.040012,50.662258 24.026697,50.832531 23.760002,51.003487 
	C23.337706,51.002651 23.168791,51.001137 22.999874,50.999619 
	C22.999874,50.999619 22.998812,50.506245 22.999577,50.259560 
z"/>
<path fill="#676C8C" opacity="1.000000" stroke="none" 
	d="
M23.000843,51.400162 
	C23.168791,51.001137 23.337706,51.002651 24.084141,51.000233 
	C25.094156,50.991299 25.526653,50.986294 25.838684,51.276878 
	C25.143763,52.713570 24.569305,53.854664 23.732817,54.998314 
	C23.296097,55.002586 23.121408,55.004303 22.946718,55.006020 
	C22.965084,53.937584 22.983450,52.869144 23.000843,51.400162 
z"/>
<path fill="#737794" opacity="1.000000" stroke="none" 
	d="
M22.697178,55.254471 
	C23.121408,55.004303 23.296097,55.002586 23.737692,55.254639 
	C24.009958,55.679211 24.015314,55.850010 23.895430,56.301483 
	C23.178890,57.387276 22.587593,58.192398 21.998146,58.998756 
	C21.999992,58.999992 22.000389,59.000389 22.000389,59.000389 
	C22.149471,57.834568 22.298553,56.668743 22.697178,55.254471 
z"/>
<path fill="#9090A8" opacity="1.000000" stroke="none" 
	d="
M21.003109,60.000278 
	C20.225660,60.330612 19.448210,60.660946 18.334467,60.982719 
	C18.766813,60.320724 19.535454,59.667294 20.652637,59.257034 
	C21.001825,59.666904 21.002468,59.833591 21.003109,60.000278 
z"/>
<path fill="#737794" opacity="1.000000" stroke="none" 
	d="
M21.253422,60.000164 
	C21.002468,59.833591 21.001825,59.666904 21.001385,59.250252 
	C21.001589,59.000290 21.500893,59.000763 21.750641,59.000576 
	C22.000389,59.000389 21.999992,58.999992 22.001854,59.249222 
	C22.003931,59.665432 22.004147,59.832413 22.004360,59.999390 
	C21.837484,59.999607 21.670610,59.999828 21.253422,60.000164 
z"/>
<path fill="#767997" opacity="1.000000" stroke="none" 
	d="
M37.113304,56.284180 
	C37.550907,56.186981 38.100918,56.358776 38.826088,56.768639 
	C39.001244,57.006706 39.006229,57.493141 39.012074,57.736107 
	C38.420517,57.503773 37.823120,57.028473 37.113304,56.284180 
z"/>
<path fill="#756AB0" opacity="1.000000" stroke="none" 
	d="
M27.160776,58.805954 
	C26.991024,59.058891 26.497971,59.035397 26.251465,59.024673 
	C26.004961,59.013947 26.001020,59.001278 26.001488,58.622101 
	C26.002407,57.483013 26.002857,56.723095 26.005180,55.729622 
	C26.007053,55.496059 26.014204,55.028973 26.248106,54.841446 
	C26.655293,54.091133 26.828577,53.528347 27.004734,52.723297 
	C27.007607,52.481033 27.013639,51.996506 27.225719,51.821575 
	C26.988945,51.092030 26.540094,50.537418 26.079901,49.742050 
	C26.068558,49.501293 26.036955,49.020283 26.029005,49.014633 
	C26.021055,49.008987 26.039856,49.037460 26.305187,48.910152 
	C27.028353,48.166718 27.486185,47.550591 28.082771,46.925423 
	C28.221523,46.916382 28.492853,46.977348 28.880905,46.992973 
	C29.527731,47.017021 29.786505,47.025452 30.058762,47.270462 
	C30.072241,47.507038 30.091164,47.980579 29.991112,48.373180 
	C29.625681,51.482437 29.360304,54.199089 29.094925,56.915745 
	C28.506794,57.461502 27.918661,58.007263 27.160776,58.805954 
z"/>
<path fill="#514D87" opacity="1.000000" stroke="none" 
	d="
M29.401352,56.935974 
	C29.360304,54.199089 29.625681,51.482437 30.219830,48.379059 
	C30.548601,47.992332 31.007843,47.998379 31.019314,48.294189 
	C31.044889,48.786858 31.058992,48.983711 31.058064,49.612621 
	C31.008175,52.360710 30.973316,54.676735 30.938456,56.992764 
	C30.528231,56.980576 30.118004,56.968388 29.401352,56.935974 
z"/>
<path fill="#7268AF" opacity="1.000000" stroke="none" 
	d="
M31.190128,56.992760 
	C30.973316,54.676735 31.008175,52.360710 31.324844,49.861473 
	C31.775984,51.468609 31.945316,53.258957 32.114647,55.049301 
	C32.077812,55.477337 32.040977,55.905376 31.974480,56.653973 
	C31.777143,56.980610 31.609472,56.986683 31.190128,56.992760 
z"/>
<path fill="#5C5383" opacity="1.000000" stroke="none" 
	d="
M32.307777,55.040733 
	C31.945316,53.258957 31.775984,51.468609 31.339874,49.429413 
	C31.058992,48.983711 31.044889,48.786858 31.334743,48.292316 
	C32.058826,47.987873 32.478958,47.981117 32.940056,48.373074 
	C33.018940,49.838783 33.056858,50.905781 33.094776,51.972778 
	C33.049976,52.738659 33.005180,53.504536 32.923950,54.653267 
	C32.887520,55.036114 32.500904,55.032169 32.307777,55.040733 
z"/>
<path fill="#626788" opacity="1.000000" stroke="none" 
	d="
M35.008499,54.346191 
	C35.022690,54.011703 35.496502,54.006138 35.732864,54.011246 
	C36.253780,54.506073 36.538334,54.995785 36.920010,55.753506 
	C36.566490,56.025429 36.115856,56.029346 35.327332,56.027000 
	C34.991066,55.574055 34.992687,55.127369 35.008499,54.346191 
z"/>
<path fill="#9B90B4" opacity="1.000000" stroke="none" 
	d="
M33.403877,51.981140 
	C33.056858,50.905781 33.018940,49.838783 33.002300,48.061676 
	C33.063259,46.930244 33.102936,46.508923 33.300667,45.846214 
	C33.966976,44.866680 34.475224,44.128525 34.933434,43.654869 
	C34.932484,44.273247 34.981567,44.627121 35.030655,44.980999 
	C35.039043,46.686378 35.047436,48.391754 35.089439,50.520298 
	C35.088932,51.114536 35.054806,51.285614 34.985245,51.715759 
	C34.537540,51.979717 34.125259,51.984612 33.403877,51.981140 
z"/>
<path fill="#9292A9" opacity="1.000000" stroke="none" 
	d="
M22.018629,60.232792 
	C22.004147,59.832413 22.003931,59.665432 22.000006,59.247982 
	C22.587593,58.192398 23.178890,57.387276 24.139055,56.294403 
	C24.507923,56.006649 24.995825,56.003815 24.997677,56.378445 
	C25.002111,57.503483 25.004694,58.253895 25.007277,59.004303 
	C25.007277,59.004303 24.981361,59.028446 24.978737,59.048203 
	C24.678370,59.522160 24.380629,59.976357 24.056953,60.713692 
	C23.857491,60.998260 23.683964,60.999687 23.250023,61.003181 
	C22.989613,61.005253 22.519423,60.974491 22.285263,60.954006 
	C22.051102,60.933521 22.032898,60.466194 22.018629,60.232792 
z"/>
<path fill="#6D638E" opacity="1.000000" stroke="none" 
	d="
M25.255836,59.003006 
	C25.004694,58.253895 25.002111,57.503483 25.249626,56.369705 
	C25.667583,55.978619 25.835445,55.970898 26.003307,55.963181 
	C26.002857,56.723095 26.002407,57.483013 26.001736,58.621292 
	C26.001516,58.999657 25.504395,59.001709 25.255836,59.003006 
z"/>
<path fill="#41405B" opacity="1.000000" stroke="none" 
	d="
M25.055429,43.961308 
	C24.908506,43.660580 24.719109,43.389534 24.182365,42.811844 
	C23.711170,42.233376 23.501858,42.037067 23.249563,41.886589 
	C23.184410,41.478947 23.119257,41.071304 22.992683,40.360657 
	C22.963585,39.593590 22.995907,39.129520 23.389252,38.327591 
	C24.410440,37.990421 25.070606,37.991116 25.790575,38.010174 
	C25.850380,38.028538 25.936262,38.114246 25.941525,38.517410 
	C25.964106,40.279663 25.981424,41.638748 25.891342,43.203663 
	C25.602516,43.674507 25.359678,43.858448 25.055429,43.961308 
z"/>
<path fill="#39364F" opacity="1.000000" stroke="none" 
	d="
M25.730770,37.991810 
	C25.070606,37.991116 24.410440,37.990421 23.422388,37.980576 
	C22.880299,37.714893 22.666098,37.458363 22.219164,37.100845 
	C23.056210,36.237095 24.125990,35.474327 25.580296,35.076920 
	C25.886805,36.292122 25.808788,37.141964 25.730770,37.991810 
z"/>
<path fill="#C997A5" opacity="1.000000" stroke="none" 
	d="
M38.339386,23.044250 
	C38.827641,23.523340 38.876846,23.973518 38.419628,24.739056 
	C36.271648,25.650066 34.630096,26.245720 33.053322,26.969688 
	C33.118099,27.098001 33.092209,27.384310 32.893890,27.177073 
	C32.449295,26.683752 32.203026,26.397667 31.956753,26.111584 
	C32.164093,25.013065 32.371433,23.914549 32.588295,22.765585 
	C34.353901,22.848597 36.127117,22.931967 38.339386,23.044250 
z"/>
<path fill="#520F28" opacity="1.000000" stroke="none" 
	d="
M31.664196,26.041185 
	C32.203026,26.397667 32.449295,26.683752 32.800606,27.446712 
	C31.591568,27.627495 30.277494,27.331404 28.720581,27.029001 
	C28.477743,27.022692 27.991936,27.028275 27.991936,27.028275 
	C27.991936,27.028275 27.996260,27.009789 27.990616,27.000698 
	C28.432337,26.571415 28.879700,26.151218 29.498692,25.580393 
	C30.237427,25.610104 30.804535,25.790445 31.664196,26.041185 
z"/>
<path fill="#A7808A" opacity="1.000000" stroke="none" 
	d="
M36.911114,19.070654 
	C37.429752,19.322552 37.948391,19.574450 38.757286,19.905855 
	C39.006798,20.590254 38.966057,21.195145 38.834450,22.083836 
	C37.606709,21.672886 36.469841,20.978134 35.230114,19.988741 
	C35.127258,19.694098 35.040176,19.382746 35.355167,19.227911 
	C36.083809,19.072269 36.497463,19.071461 36.911114,19.070654 
z"/>
<path fill="#9C7680" opacity="1.000000" stroke="none" 
	d="
M31.070858,18.398952 
	C31.260897,18.271603 31.588392,18.340990 32.001930,18.683336 
	C31.751886,18.940498 31.458668,18.820295 31.070858,18.398952 
z"/>
<path fill="#A7808A" opacity="1.000000" stroke="none" 
	d="
M29.286091,21.951090 
	C29.163395,21.837378 29.164780,21.647753 29.391375,21.283100 
	C29.695801,21.407497 29.626995,21.663200 29.286091,21.951090 
z"/>
<path fill="#161126" opacity="1.000000" stroke="none" 
	d="
M25.691463,34.453518 
	C25.952761,33.402569 26.207256,32.442085 27.043991,31.375212 
	C28.752985,31.509605 29.879740,31.750389 31.338869,32.013855 
	C31.892904,32.050465 32.114563,32.064396 32.231419,32.462875 
	C32.042034,33.638115 31.957455,34.428814 31.841324,35.471668 
	C31.530478,36.338448 31.251181,36.953072 30.754194,37.766525 
	C30.346628,38.300201 30.156752,38.635040 29.737755,38.919609 
	C29.169477,38.554993 28.830322,38.240650 28.405188,37.594849 
	C27.490580,36.391598 26.661951,35.519806 25.833321,34.648014 
	C25.833321,34.648014 25.684662,34.543983 25.691463,34.453518 
z"/>
<path fill="#3C0E27" opacity="1.000000" stroke="none" 
	d="
M32.336224,32.078327 
	C32.114563,32.064396 31.892904,32.050465 31.286430,31.696507 
	C29.926691,30.567184 28.951763,29.777893 27.976833,28.988602 
	C27.976833,28.988604 27.981285,28.497631 28.195641,28.140640 
	C28.672016,27.591545 28.856491,27.342098 28.963419,27.035311 
	C30.277494,27.331404 31.591568,27.627495 32.998924,27.653950 
	C33.092209,27.384310 33.118099,27.098001 33.254913,27.175571 
	C33.858723,27.585424 34.325722,27.917706 34.818382,28.588882 
	C34.870811,29.605944 34.897572,30.284105 34.653336,31.045671 
	C33.700298,31.445492 33.018261,31.761909 32.336224,32.078327 
z"/>
<path fill="#2B0F26" opacity="1.000000" stroke="none" 
	d="
M27.747995,29.167915 
	C28.951763,29.777893 29.926691,30.567184 30.954056,31.673824 
	C29.879740,31.750389 28.752985,31.509605 27.306986,31.120750 
	C27.164881,30.430861 27.342018,29.889046 27.747995,29.167915 
z"/>
<path fill="#2B0F26" opacity="1.000000" stroke="none" 
	d="
M28.720581,27.029001 
	C28.856491,27.342098 28.672016,27.591545 28.201714,27.895218 
	C27.993429,28.006786 27.992329,27.517200 27.992132,27.272738 
	C27.991936,27.028275 28.477743,27.022692 28.720581,27.029001 
z"/>
<path fill="#646B8C" opacity="1.000000" stroke="none" 
	d="
M25.854347,34.641312 
	C26.661951,35.519806 27.490580,36.391598 28.009365,37.652641 
	C27.443060,38.108608 27.186598,38.175327 26.681160,38.214035 
	C26.266876,38.162098 26.101570,38.138172 25.936262,38.114246 
	C25.936262,38.114246 25.850380,38.028538 25.790575,38.010174 
	C25.808788,37.141964 25.886805,36.292122 25.916813,35.021057 
	C25.868805,34.599834 25.875374,34.634605 25.854347,34.641312 
z"/>
<path fill="#302D42" opacity="1.000000" stroke="none" 
	d="
M37.761761,33.675156 
	C38.336285,34.651272 38.910809,35.627388 39.750748,36.814137 
	C39.266903,37.767651 38.517639,38.510536 37.424545,39.001709 
	C37.051456,38.467506 37.022198,38.185013 36.985672,37.584114 
	C36.984280,36.838535 36.990150,36.411366 37.006134,35.671368 
	C37.264751,34.797413 37.513256,34.236286 37.761761,33.675156 
z"/>
<path fill="#403D55" opacity="1.000000" stroke="none" 
	d="
M36.992943,37.902523 
	C37.022198,38.185013 37.051456,38.467506 37.153362,39.175957 
	C37.245464,40.189362 37.264919,40.776814 37.318443,41.664440 
	C37.127499,41.989990 36.902485,42.015358 36.307915,41.770531 
	C35.642715,41.013657 35.347073,40.526985 35.014149,40.004509 
	C34.976864,39.968708 34.907921,39.893108 35.075142,39.655258 
	C35.825886,38.912449 36.409412,38.407486 36.992943,37.902523 
z"/>
<path fill="#596086" opacity="1.000000" stroke="none" 
	d="
M42.001556,43.001991 
	C42.084900,42.966904 42.166679,42.929836 42.122490,42.945076 
	C41.996521,42.997379 42.000000,43.000011 42.001556,43.001991 
z"/>
<path fill="#454E72" opacity="1.000000" stroke="none" 
	d="
M41.004448,37.086082 
	C41.198341,37.052814 41.482513,37.312851 41.921768,37.817013 
	C41.749477,37.833885 41.422104,37.606640 41.004448,37.086082 
z"/>
<path fill="#5F556C" opacity="1.000000" stroke="none" 
	d="
M35.051434,40.040310 
	C35.347073,40.526985 35.642715,41.013657 35.969597,41.800674 
	C35.838760,42.922428 35.676682,43.743835 35.272629,44.773121 
	C34.981567,44.627121 34.932484,44.273247 34.849495,43.336281 
	C34.534065,42.170284 34.252541,41.587372 34.184460,40.883751 
	C34.661827,40.563793 34.879669,40.322884 35.051434,40.040310 
z"/>
<path fill="#D39EAE" opacity="1.000000" stroke="none" 
	d="
M34.792717,28.249989 
	C34.325722,27.917706 33.858723,27.585424 33.190132,27.047258 
	C34.630096,26.245720 36.271648,25.650066 38.321556,25.067583 
	C38.500038,25.773462 38.270168,26.466171 37.469379,27.486361 
	C36.196545,27.959223 35.494633,28.104605 34.792717,28.249989 
z"/>
<path fill="#8B6371" opacity="1.000000" stroke="none" 
	d="
M34.818382,28.588884 
	C35.494633,28.104605 36.196545,27.959223 37.253082,27.792023 
	C37.793243,28.253695 37.978775,28.737185 38.247498,29.604248 
	C38.245247,30.161587 38.159813,30.335354 37.590641,30.762363 
	C36.379379,30.997826 35.651859,30.980047 34.924332,30.962269 
	C34.897572,30.284105 34.870811,29.605944 34.818382,28.588884 
z"/>
<path fill="#533F4A" opacity="1.000000" stroke="none" 
	d="
M36.953751,18.836300 
	C36.497463,19.071461 36.083809,19.072269 35.359901,19.066330 
	C35.177769,18.491076 35.305893,17.922569 35.634468,17.137308 
	C36.079273,17.227751 36.323627,17.534946 36.827282,17.988152 
	C37.086582,18.134161 36.996384,18.601946 36.953751,18.836300 
z"/>
<path fill="#9E7381" opacity="1.000000" stroke="none" 
	d="
M34.653336,31.045671 
	C35.651859,30.980047 36.379379,30.997826 37.469604,31.026394 
	C37.819660,31.698143 37.807011,32.359108 37.778061,33.347610 
	C37.513256,34.236286 37.264751,34.797413 36.674385,35.710705 
	C35.887550,36.044289 35.442570,36.025707 34.764275,35.766624 
	C33.644932,35.423916 32.758904,35.321712 31.872875,35.219509 
	C31.957455,34.428814 32.042034,33.638115 32.231419,32.462875 
	C33.018261,31.761909 33.700298,31.445492 34.653336,31.045671 
z"/>
<path fill="#757791" opacity="1.000000" stroke="none" 
	d="
M42.667679,34.874557 
	C42.534901,35.270626 42.097237,35.604942 41.370239,35.973991 
	C41.508205,35.610085 41.935497,35.211445 42.667679,34.874557 
z"/>
<path fill="#535A7E" opacity="1.000000" stroke="none" 
	d="
M25.039396,44.298050 
	C25.359678,43.858448 25.602516,43.674507 26.295151,43.205658 
	C27.615177,43.053493 28.423992,43.105171 29.162846,43.539616 
	C28.892876,44.940704 28.692863,45.959026 28.492853,46.977348 
	C28.492853,46.977348 28.221523,46.916382 27.796623,46.813034 
	C26.594328,46.467297 25.816931,46.224899 25.039534,45.982502 
	C25.034143,45.533268 25.028753,45.084030 25.039396,44.298050 
z"/>
<path fill="#626788" opacity="1.000000" stroke="none" 
	d="
M25.021336,46.237690 
	C25.816931,46.224899 26.594328,46.467297 27.657871,46.822075 
	C27.486185,47.550591 27.028353,48.166718 26.266577,48.613281 
	C25.649597,47.963863 25.336559,47.484009 25.023521,47.004150 
	C25.016727,46.833729 25.009933,46.663303 25.021336,46.237690 
z"/>
<path fill="#676C8C" opacity="1.000000" stroke="none" 
	d="
M24.901287,47.295700 
	C25.336559,47.484009 25.649597,47.963863 26.001244,48.740593 
	C26.039856,49.037460 26.021055,49.008987 25.777225,49.111153 
	C25.065495,49.470654 24.597595,49.727989 24.129696,49.985321 
	C24.346149,49.185966 24.562601,48.386612 24.901287,47.295700 
z"/>
<path fill="#626788" opacity="1.000000" stroke="none" 
	d="
M24.091513,50.238651 
	C24.597595,49.727989 25.065495,49.470654 25.785175,49.116798 
	C26.036955,49.020283 26.068558,49.501293 26.053076,50.001408 
	C26.036930,50.675133 26.036268,50.848747 26.017757,51.009918 
	C25.999907,50.997475 25.959150,50.981285 25.959150,50.981285 
	C25.526653,50.986294 25.094156,50.991299 24.337521,50.999557 
	C24.026697,50.832531 24.040012,50.662258 24.091513,50.238651 
z"/>
<path fill="#5E5E7F" opacity="1.000000" stroke="none" 
	d="
M23.283546,42.121506 
	C23.501858,42.037067 23.711170,42.233376 23.981434,42.665237 
	C23.738335,42.828964 23.482389,42.662788 23.283546,42.121506 
z"/>
<path fill="#83839C" opacity="1.000000" stroke="none" 
	d="
M26.005180,55.729622 
	C25.835445,55.970898 25.667583,55.978619 25.247774,55.995075 
	C24.995825,56.003815 24.507923,56.006649 24.264297,56.013729 
	C24.015314,55.850010 24.009958,55.679211 23.999725,55.252087 
	C24.569305,53.854664 25.143763,52.713570 25.838684,51.276878 
	C25.959150,50.981285 25.999907,50.997475 26.224380,51.123039 
	C26.703848,51.447495 26.892109,51.696796 27.013639,51.996506 
	C27.013639,51.996506 27.007607,52.481033 26.767731,52.908630 
	C26.356636,53.900475 26.185419,54.464725 26.014202,55.028973 
	C26.014204,55.028973 26.007053,55.496059 26.005180,55.729622 
z"/>
<path fill="#9D92B5" opacity="1.000000" stroke="none" 
	d="
M28.880905,46.992973 
	C28.692863,45.959026 28.892876,44.940704 29.333733,43.573051 
	C29.786112,43.312347 29.994129,43.408569 30.224697,43.819061 
	C30.374825,44.726337 30.498890,45.326942 30.493530,46.092468 
	C30.252348,46.513969 30.146072,46.772800 30.045280,47.033882 
	C29.786505,47.025452 29.527731,47.017021 28.880905,46.992973 
z"/>
<path fill="#4C4878" opacity="1.000000" stroke="none" 
	d="
M30.058762,47.270462 
	C30.146072,46.772800 30.252348,46.513969 30.915436,46.122292 
	C32.025379,46.020664 32.583996,46.054131 33.142612,46.087597 
	C33.102936,46.508923 33.063259,46.930244 32.961334,47.662964 
	C32.478958,47.981117 32.058826,47.987873 31.323271,47.996506 
	C31.007843,47.998379 30.548601,47.992332 30.319881,47.986458 
	C30.091164,47.980579 30.072241,47.507038 30.058762,47.270462 
z"/>
<path fill="#8581A2" opacity="1.000000" stroke="none" 
	d="
M27.225719,51.821575 
	C26.892109,51.696796 26.703848,51.447495 26.242231,51.135479 
	C26.036268,50.848747 26.036930,50.675133 26.064419,50.242165 
	C26.540094,50.537418 26.988945,51.092030 27.225719,51.821575 
z"/>
<path fill="#706694" opacity="1.000000" stroke="none" 
	d="
M26.248104,54.841446 
	C26.185419,54.464725 26.356636,53.900475 26.764858,53.150894 
	C26.828577,53.528347 26.655293,54.091133 26.248104,54.841446 
z"/>
<path fill="#393555" opacity="1.000000" stroke="none" 
	d="
M33.300667,45.846214 
	C32.583996,46.054131 32.025379,46.020664 31.044859,45.957367 
	C30.498890,45.326942 30.374825,44.726337 30.519676,43.551151 
	C31.161800,42.618526 31.535006,42.260487 32.064102,42.064461 
	C32.803665,41.819134 33.387341,41.411800 33.971012,41.004463 
	C34.252541,41.587372 34.534065,42.170284 34.899532,43.071777 
	C34.475224,44.128525 33.966976,44.866680 33.300667,45.846214 
z"/>
<path fill="#4A4E73" opacity="1.000000" stroke="none" 
	d="
M31.908211,41.902451 
	C31.535006,42.260487 31.161800,42.618526 30.493614,43.244476 
	C29.994129,43.408569 29.786112,43.312347 29.403694,43.190285 
	C28.423992,43.105171 27.615177,43.053493 26.402554,42.999825 
	C25.981424,41.638748 25.964106,40.279663 25.941525,38.517410 
	C26.101570,38.138172 26.266876,38.162098 26.778004,38.521896 
	C28.089178,39.207928 29.054529,39.558090 30.259260,40.032837 
	C30.965965,40.416004 31.433290,40.674587 31.910519,41.175426 
	C31.920420,41.417683 31.908213,41.902451 31.908211,41.902451 
z"/>
<path fill="#373350" opacity="1.000000" stroke="none" 
	d="
M32.064102,42.064461 
	C31.908213,41.902451 31.920420,41.417683 31.909182,40.828049 
	C31.589256,39.348171 31.280571,38.457932 30.971884,37.567692 
	C31.251181,36.953072 31.530478,36.338448 31.841324,35.471668 
	C32.758904,35.321712 33.644932,35.423916 34.730591,36.079079 
	C34.922787,37.719063 34.915356,38.806087 34.907921,39.893108 
	C34.907921,39.893108 34.976864,39.968708 35.014149,40.004509 
	C34.879669,40.322884 34.661827,40.563793 34.184460,40.883751 
	C33.387341,41.411800 32.803665,41.819134 32.064102,42.064461 
z"/>
<path fill="#505981" opacity="1.000000" stroke="none" 
	d="
M30.019882,39.908249 
	C29.054529,39.558090 28.089178,39.207928 27.026979,38.549904 
	C27.186598,38.175327 27.443060,38.108608 28.095345,37.984100 
	C28.830322,38.240650 29.169477,38.554993 29.752712,39.154076 
	C29.996794,39.438812 30.019882,39.908249 30.019882,39.908249 
z"/>
<path fill="#6B6273" opacity="1.000000" stroke="none" 
	d="
M30.259260,40.032837 
	C30.019882,39.908249 29.996794,39.438812 29.981834,39.204346 
	C30.156752,38.635040 30.346628,38.300201 30.754194,37.766525 
	C31.280571,38.457932 31.589256,39.348171 31.899281,40.585793 
	C31.433290,40.674587 30.965965,40.416004 30.259260,40.032837 
z"/>
<path fill="#212037" opacity="1.000000" stroke="none" 
	d="
M35.075142,39.655258 
	C34.915356,38.806087 34.922787,37.719063 34.963905,36.319584 
	C35.442570,36.025707 35.887550,36.044289 36.664276,36.023529 
	C36.990150,36.411366 36.984280,36.838535 36.985672,37.584114 
	C36.409412,38.407486 35.825886,38.912449 35.075142,39.655258 
z"/>
</svg>